<?xml version="1.0" standalone="no"?>
<!DOCTYPE svg PUBLIC "-//W3C//DTD SVG 1.1//EN" "http://www.w3.org/Graphics/SVG/1.1/DTD/svg11.dtd" >
<svg xmlns="http://www.w3.org/2000/svg">
<metadata>
This is a custom SVG webfont generated by Font Squirrel.
Copyright   :  c Copyright 1997 International Typeface Corporation All rights reserved
</metadata>
<defs>
<font id="webfontHMxmuJV6" horiz-adv-x="1024" >
<font-face units-per-em="2048" ascent="1638" descent="-410" />
<missing-glyph horiz-adv-x="421" />
<glyph unicode=" "  horiz-adv-x="421" />
<glyph unicode="&#x09;" horiz-adv-x="421" />
<glyph unicode="&#xa0;" horiz-adv-x="421" />
<glyph unicode="!" horiz-adv-x="681" d="M442 1376l-45 -807q-2 -27 -28 -26h-60q-27 0 -28 26l-48 815q0 20 29 21h152q29 0 28 -23v-6zM485 117q0 -59 -42 -102.5t-101 -43.5q-61 0 -103 42t-42 104q0 59 43 101t104 42q57 0 99 -43t42 -100z" />
<glyph unicode="&#x22;" d="M748 1376l-31 -485q-2 -27 -29 -27h-45q-27 0 -29 27l-34 495q0 18 28 19h113q29 0 27 -29zM444 1376l-30 -485q-2 -27 -29 -27h-45q-27 0 -29 27l-35 493q0 20 29 21h113q28 0 26 -29z" />
<glyph unicode="#" d="M952 801q0 -29 -28 -29h-127l-41 -407h112q29 0 29 -29v-74q0 -29 -29 -29h-127l-39 -370q-2 -27 -28 -27h-74q-27 0 -27 23v8l39 366h-260l-39 -370q-2 -27 -28 -27h-72q-29 0 -29 19v12l39 366h-121q-29 0 -28 29v74q0 29 28 29h138l39 407h-121q-29 0 -29 29v78 q0 29 29 28h137l43 414q2 27 29 27h73q27 0 27 -25v-4l-43 -412h260l43 414q2 27 29 27h71q29 0 29 -19v-10l-43 -412h111q29 0 28 -28v-78zM668 772h-260l-39 -407h260z" />
<glyph unicode="$" d="M897 344q0 -143 -87 -244.5t-228 -122.5v-133q0 -29 -29 -28h-53q-29 0 -29 28v125q-104 4 -226 42t-122 69l2 14l37 96q6 10 14 11q8 0 17 -6q180 -92 278 -89v515q-164 94 -205 131q-111 100 -110 247q0 133 89 228.5t226 109.5v117q0 29 29 29h53q29 0 29 -29v-113 q94 -6 187 -39.5t93 -60.5q0 -4 -4 -14l-35 -88q-4 -10 -14 -11q-8 0 -33 13q-111 57 -194 65v-467q168 -96 221 -151q94 -101 94 -244zM471 782v418q-150 -20 -149 -184q0 -78 31.5 -127.5t117.5 -106.5zM735 328q0 78 -33.5 132t-119.5 115v-462q153 37 153 215z" />
<glyph unicode="%" horiz-adv-x="1517" d="M1456 344q0 -172 -73.5 -268t-204.5 -96q-127 0 -196 87t-69 246q0 174 74 269.5t209 95.5q123 0 191.5 -88t68.5 -246zM1110 1335q0 -6 -4 -16l-559 -1337q-8 -20 -37 -21h-78q-27 0 -26 14q0 8 4 19l557 1337q8 20 30 21h86q27 -1 27 -17zM602 1004 q0 -172 -73.5 -268.5t-204.5 -96.5q-127 0 -196 87t-69 249q0 172 74 267t209 95q123 0 191.5 -87.5t68.5 -245.5zM1321 334q0 231 -131 231q-141 0 -141 -241q0 -231 129 -232q143 0 143 242zM467 993q0 231 -131 232q-141 0 -141 -244q0 -229 131 -229q141 -1 141 241z " />
<glyph unicode="&#x26;" horiz-adv-x="1251" d="M1182 68q0 -8 -13 -19l-82 -67q-12 -8 -20 -9q-12 0 -23 13l-122 141q-180 -147 -383 -147q-190 0 -306 101t-116 269q0 188 159 309l111 80q-178 207 -178 355q0 145 102.5 238t259.5 93q139 0 224.5 -82.5t85.5 -218.5q0 -211 -279 -393l340 -383q61 104 62 240v24 q0 25 24 25h100q25 0 25 -35q0 -201 -119 -360l142 -162q6 -6 6 -12zM729 1110q0 82 -49 133t-129 51t-134.5 -52t-54.5 -130q0 -115 160 -291q207 146 207 289zM836 227l-369 424q-106 -84 -144 -145.5t-38 -145.5q0 -115 72.5 -182t195.5 -67q152 -1 283 116z" />
<glyph unicode="'" horiz-adv-x="681" d="M424 1376l-31 -485q-2 -27 -28 -27h-46q-27 0 -28 27l-35 493q0 20 29 21h112q29 0 27 -29z" />
<glyph unicode="(" horiz-adv-x="757" d="M649 -412q0 -12 -34.5 -34.5t-53.5 -22.5q-31 0 -141 166q-252 377 -252 813q0 475 297 879q76 102 96 102q14 0 25 -8l49 -29q14 -8 14 -20t-18 -37q-295 -393 -295 -887q0 -489 295 -885q18 -25 18 -37z" />
<glyph unicode=")" horiz-adv-x="757" d="M590 510q0 -471 -297 -877q-76 -102 -96 -102q-14 0 -25 6l-49 31q-14 8 -14 18q0 14 18 39q295 395 295 885q0 492 -295 887q-18 25 -18 37t47 41q27 16 41 16q29 0 141 -166q252 -373 252 -815z" />
<glyph unicode="*" d="M850 1112q0 -12 -23 -18l-233 -54l158 -180q10 -12 10 -18q0 -10 -17 -23l-71 -51q-14 -10 -19 -10q-10 0 -20 16l-123 205l-123 -205q-10 -16 -20 -16q-6 0 -21 10l-72 53q-16 12 -16 19q0 6 12 20l156 180l-231 54q-25 6 -25 18q0 4 4 16l29 86q8 23 18 23l17 -6 l221 -94l-23 249q0 18 29 19h90q27 0 27 -16v-13l-21 -239l228 96q8 4 10 4q12 0 18 -23l27 -86q4 -12 4 -16z" />
<glyph unicode="+" d="M979 471q0 -29 -29 -29h-362v-360q0 -29 -29 -29h-96q-29 0 -29 29v360h-360q-29 0 -29 29v96q0 29 29 29h360v362q0 27 29 27h96q29 0 29 -27v-362h362q29 0 29 -29v-96z" />
<glyph unicode="," horiz-adv-x="606" d="M477 219q0 -6 -8 -20l-236 -435q-10 -18 -20 -18q-2 0 -10 2l-6 2l-45 17q-23 8 -23 18q0 2 4 16l119 410q6 23 31 22h166q28 0 28 -14z" />
<glyph unicode="-" horiz-adv-x="720" d="M645 475q0 -29 -29 -29h-512q-29 0 -28 29v96q0 29 28 29h512q29 0 29 -29v-96z" />
<glyph unicode="." horiz-adv-x="606" d="M449 117q0 -59 -42 -102.5t-102 -43.5q-61 0 -103 42t-42 104q0 59 43 101t104 42q57 0 99.5 -43t42.5 -100z" />
<glyph unicode="/" d="M895 1477q0 -6 -6 -21l-793 -1905q-8 -20 -35 -20h-77q-29 0 -29 16q0 4 6 19l793 1904q8 20 32 21h82q27 0 27 -14z" />
<glyph unicode="0" d="M934 598q0 -627 -424 -627q-176 0 -277 121q-141 172 -141 481q0 297 116 462t322 165q195 0 299.5 -155.5t104.5 -446.5zM768 594q0 461 -250 461q-123 0 -191.5 -123t-68.5 -346q0 -236 74 -365q59 -104 180 -104q137 0 195 119q61 129 61 358z" />
<glyph unicode="1" d="M870 29q0 -29 -28 -29h-541q-29 0 -29 29v77q0 29 29 29h207v873l-254 -148q-14 -8 -21 -8q-8 0 -18 18l-25 48q-6 12 -6 20q0 6 17 18l331 234h103q29 0 29 -29v-1026h178q29 0 28 -29v-77z" />
<glyph unicode="2" d="M881 29q0 -29 -29 -29h-686q-25 0 -25 29q0 201 82 336t271 241q141 80 176 125q45 57 45 139q0 86 -52.5 135.5t-144.5 49.5q-88 0 -141 -45t-92 -154q-8 -20 -21 -20q-6 0 -20 4l-84 24q-16 6 -17 21q0 23 27 80t55 94q109 141 301 141q164 0 259.5 -86t95.5 -231 q0 -152 -93 -248q-57 -59 -198 -135q-264 -141 -289 -350h551q29 0 29 -29v-92z" />
<glyph unicode="3" d="M885 225q0 -176 -120 -284.5t-316 -108.5q-104 0 -220 31t-116 59q0 4 6 19l41 92q6 12 14 12t47 -18q104 -49 225 -50q272 0 273 254q0 252 -299 252h-70q-29 0 -28 29v82q0 29 28 29h68q121 0 192.5 66.5t71.5 178.5q0 90 -54.5 143.5t-144.5 53.5q-113 0 -207 -104 q-25 -27 -38 -27q-6 0 -17 8l-67 57q-10 6 -11 17q0 31 99 104q106 80 247 80q156 0 253.5 -91t97.5 -237q0 -217 -211 -301q84 -27 131 -63q125 -101 125 -283z" />
<glyph unicode="4" d="M961 178q0 -29 -29 -28h-162v-289q0 -29 -29 -29h-96q-29 0 -29 29v289h-528q-25 0 -25 28v115l531 881q10 16 35 16l102 -16q25 -4 25 -19q0 -8 -8 -18l-523 -854h391l23 331q2 27 29 27h73q29 0 29 -29v-329h162q29 0 29 -29v-76z" />
<glyph unicode="5" d="M887 309q0 -221 -129 -349t-352 -128q-111 0 -189 21.5t-78 50.5v14l21 82q4 16 20 16q6 0 23 -4q92 -35 213 -35q305 0 305 326q0 123 -56.5 191.5t-156.5 68.5q-127 0 -238 -112q-12 -12 -18 -13l-19 2l-71 25q-23 8 -23 18v15l66 655q2 27 28 27h533q29 0 29 -29v-86 q0 -29 -29 -29h-428l-45 -415q119 88 246 88q156 0 252 -111t96 -289z" />
<glyph unicode="6" d="M905 459q0 -215 -110.5 -351.5t-284.5 -136.5q-209 0 -311 189q-78 141 -78 372q0 369 153.5 587t413.5 218q70 0 121 -13t51 -32q0 -8 -2 -12l-22 -86q-4 -14 -15 -14l-14 2q-61 23 -125 22q-166 0 -270 -143q-86 -117 -111 -297q117 133 260 133q156 0 250 -119.5 t94 -318.5zM739 457q0 299 -229 299q-106 0 -164.5 -77t-58.5 -218q0 -344 225 -344q227 0 227 340z" />
<glyph unicode="7" d="M872 1104l-473 -1241q-8 -20 -20 -21q-2 0 -8 2h-4l-111 17q-25 4 -25 16q0 6 7 19l442 1136h-528q-29 0 -29 29v90q0 29 29 29h692q29 0 28 -29v-47z" />
<glyph unicode="8" d="M942 342q0 -135 -88 -238q-115 -133 -340 -133q-197 0 -314.5 99.5t-117.5 267.5q0 164 117 268q59 53 182 101q-242 94 -242 305q0 131 94 223q104 102 283 102q162 0 264.5 -86t102.5 -221q0 -209 -232 -319q291 -117 291 -369zM733 1014q0 88 -59.5 140t-157.5 52 q-94 0 -151.5 -52t-57.5 -136q0 -143 217 -244q209 86 209 240zM780 332q0 197 -266 297q-256 -106 -256 -297q0 -100 74 -163t192 -63q115 0 185.5 63t70.5 163z" />
<glyph unicode="9" d="M887 641q0 -381 -138.5 -595t-386.5 -214q-106 0 -165 27q-20 10 -21 26v13l10 84q0 16 17 16q2 0 16 -4q76 -23 143 -23q289 0 359 459q-96 -156 -266 -156q-156 0 -251 125t-95 328q0 211 110.5 342t288.5 131q379 0 379 -559zM721 743q0 311 -219 312q-104 0 -166 -86 t-62 -234q0 -152 58.5 -236.5t163.5 -84.5q225 -1 225 329z" />
<glyph unicode=":" horiz-adv-x="606" d="M449 825q0 -59 -42 -101t-102 -42q-61 0 -103 42t-42 103q0 59 43 101.5t104 42.5q57 0 99.5 -43.5t42.5 -102.5zM449 117q0 -59 -42 -102.5t-102 -43.5q-61 0 -103 42t-42 104q0 59 43 101t104 42q57 0 99.5 -43t42.5 -100z" />
<glyph unicode=";" horiz-adv-x="606" d="M479 825q0 -59 -43 -101t-102 -42t-101.5 42t-42.5 103q0 59 43 101.5t105 42.5q57 0 99 -43.5t42 -102.5zM477 219q0 -6 -8 -20l-236 -435q-10 -18 -20 -18q-2 0 -10 2l-6 2l-45 17q-23 8 -23 18q0 2 4 16l119 410q6 23 31 22h166q28 0 28 -14z" />
<glyph unicode="&#x3c;" horiz-adv-x="1052" d="M1026 199l-913 432v143l913 432v-166l-735 -338l735 -337v-166z" />
<glyph unicode="=" d="M979 612q0 -29 -29 -28h-876q-29 0 -29 28v97q0 29 29 28h876q29 0 29 -28v-97zM979 330q0 -29 -29 -29h-876q-29 0 -29 29v96q0 29 29 29h876q29 0 29 -29v-96z" />
<glyph unicode="&#x3e;" horiz-adv-x="1052" d="M1024 631l-911 -432v166l733 337l-733 338v166l911 -432v-143z" />
<glyph unicode="?" horiz-adv-x="872" d="M770 1104q0 -264 -313 -348v-185q0 -29 -29 -28h-82q-29 0 -29 28v252q0 31 35 41q121 35 170 66q86 53 86 170q0 182 -213 182q-106 0 -223 -51q-12 -4 -18 -4q-12 0 -19 16l-29 78q-4 10 -4 14q0 29 104.5 58.5t205.5 29.5q168 0 263 -83.5t95 -235.5zM537 117 q0 -59 -43 -102.5t-103 -43.5q-59 0 -101 43t-42 103q0 59 43 101t104 42q57 0 99.5 -43t42.5 -100z" />
<glyph unicode="@" horiz-adv-x="1933" d="M1794 748q0 -186 -78 -340t-217 -242q-102 -66 -211 -66q-168 0 -174 185q-125 -182 -283 -183q-82 0 -129 62.5t-47 169.5q0 221 117 397q98 150 250 150q94 0 166 -82l20 49q6 12 21 12h92q12 0 12 -8v-6l-2 -6l-100 -471q-4 -18 -4 -58q0 -98 82 -98 q141 0 246.5 158.5t105.5 371.5q0 207 -117 328q-154 160 -434 160q-350 0 -589.5 -247t-239.5 -607q0 -289 160.5 -454t476.5 -165q336 0 608 148q23 12 33 12q14 0 20 -16l25 -60q4 -10 4 -16q0 -20 -35 -37q-299 -150 -674 -149q-365 0 -562.5 199.5t-197.5 529.5 q0 193 78 383t211 323q274 274 680 275q338 0 532 -189q154 -147 154 -413zM1159 692q-74 68 -145 68q-90 0 -150.5 -141.5t-60.5 -276.5q0 -113 71 -113q80 0 150 84t98 211z" />
<glyph unicode="A" horiz-adv-x="1175" d="M1188 25q0 -25 -25 -25h-415q-25 0 -25 25v84q0 25 25 24h126l-81 289h-416l-82 -289h133q25 0 25 -24v-84q0 -25 -25 -25h-412q-25 0 -24 25v84q0 25 24 24h99l383 1249q6 23 30 23h121q25 0 31 -23l383 -1249h100q25 0 25 -24v-84zM754 563l-123 451q-27 96 -47 196 q-16 -80 -47 -194l-121 -453h338z" />
<glyph unicode="B" horiz-adv-x="1175" d="M1036 389q0 -143 -76.5 -247.5t-214.5 -129.5q-61 -12 -202 -12h-439q-25 0 -24 25v84q0 25 24 24h129v1139h-129q-25 0 -24 24v84q0 25 24 25h474q197 0 278 -53q131 -84 131 -283q0 -236 -205 -334q98 -27 146 -71q108 -103 108 -275zM805 1051q0 119 -52.5 168 t-179.5 49h-172v-484h131q119 0 173 37q100 70 100 230zM854 393q0 254 -279 254h-174v-510h185q121 0 182 49q86 68 86 207z" />
<glyph unicode="C" horiz-adv-x="987" d="M903 115q0 -27 -18 -41q-131 -102 -310 -103q-471 0 -471 746q0 717 455 717q188 0 318 -105q16 -14 16 -37v-227q0 -25 -25 -25h-92q-25 0 -24 25v174q-100 57 -189 57q-147 0 -211.5 -131t-64.5 -428q0 -629 291 -628q86 0 184 57v176q0 25 24 25h93q25 0 24 -25v-227z " />
<glyph unicode="D" horiz-adv-x="1175" d="M1067 715q0 -377 -135 -546t-438 -169h-390q-25 0 -24 25v84q0 25 24 24h129v1139h-129q-25 0 -24 24v84q0 25 24 25h414q236 0 342 -78q207 -151 207 -612zM887 723q0 401 -162 496q-72 41 -211 41h-113v-1115h127q188 0 277 136q82 125 82 442z" />
<glyph unicode="E" horiz-adv-x="987" d="M920 29q0 -29 -29 -29h-787q-25 0 -24 25v84q0 25 24 24h129v1139h-129q-25 0 -24 24v84q0 25 24 25h773q29 0 28 -31v-276q0 -25 -24 -25h-93q-25 0 -24 25v162h-363v-461h402q29 0 28 -29v-80q0 -29 -28 -28h-402v-517h377v181q0 25 25 24h92q25 0 25 -24v-297z" />
<glyph unicode="F" horiz-adv-x="948" d="M907 1098q0 -25 -24 -25h-92q-25 0 -25 25v162h-365v-476h402q29 0 28 -28v-80q0 -29 -28 -29h-402v-514h154q25 0 25 -24v-84q0 -25 -25 -25h-451q-25 0 -24 25v84q0 25 24 24h129v1139h-129q-25 0 -24 24v84q0 25 24 25h775q29 0 28 -31v-276z" />
<glyph unicode="G" horiz-adv-x="1099" d="M1098 602q0 -25 -25 -24h-115v-494q0 -18 -18 -31q-131 -82 -340 -82q-242 0 -368 185.5t-126 539.5t127 546t363 192q76 0 168 -29q100 -31 149 -76q14 -12 15 -35v-233q0 -25 -25 -25h-92q-25 0 -25 25v180q-96 55 -188 55q-127 0 -201 -92q-109 -135 -108 -483 q0 -324 81 -468t261 -144q70 0 160 38v431h-160q-29 0 -29 28v76q0 29 29 29h442q25 0 25 -25v-84z" />
<glyph unicode="H" horiz-adv-x="1327" d="M1247 25q0 -25 -24 -25h-428q-25 0 -25 25v84q0 25 25 24h131v526h-525v-526h131q25 0 25 -24v-84q0 -25 -25 -25h-428q-25 0 -24 25v84q0 25 24 24h129v1139h-129q-25 0 -24 24v84q0 25 24 25h428q25 0 25 -25v-84q0 -25 -25 -24h-131v-471h525v471h-131q-25 0 -25 24 v84q0 25 25 25h428q25 0 24 -25v-84q0 -25 -24 -24h-129v-1139h129q25 0 24 -24v-84z" />
<glyph unicode="I" horiz-adv-x="720" d="M655 29q0 -29 -28 -29h-531q-29 0 -28 29v75q0 29 28 29h180v1139h-180q-29 0 -28 28v76q0 29 28 29h531q29 0 28 -29v-76q0 -29 -28 -28h-183v-1139h183q29 0 28 -29v-75z" />
<glyph unicode="J" horiz-adv-x="909" d="M750 434q0 -154 -10.5 -208t-47.5 -109q-100 -145 -317 -146q-176 0 -270.5 101.5t-94.5 289.5q0 41 19 41h121q16 0 16 -20v-25q0 -250 209 -249q141 0 188 110q18 43 19 205v840h-355q-29 0 -28 28v84q0 29 28 29h494q29 0 29 -29v-942z" />
<glyph unicode="K" horiz-adv-x="1138" d="M1149 25q0 -25 -27 -25h-391q-25 0 -24 25v84q0 25 24 24h98l-428 543v-543h125q25 0 25 -24v-84q0 -25 -25 -25h-422q-25 0 -24 25v84q0 25 24 24h129v1139h-129q-25 0 -24 24v84q0 25 24 25h422q25 0 25 -25v-84q0 -25 -25 -24h-125v-572l435 572h-101q-25 0 -24 24v84 q0 25 24 25h375q25 0 25 -25v-84q0 -25 -25 -24h-92l-447 -574l451 -565h100q27 0 27 -24v-84z" />
<glyph unicode="L" horiz-adv-x="948" d="M987 303q0 -6 -2 -10l-98 -270q-8 -23 -31 -23h-752q-25 0 -24 25v84q0 25 24 24h129v1139h-129q-25 0 -24 24v84q0 25 24 25h428q25 0 25 -25v-84q0 -25 -25 -24h-131v-1127h371l72 199q6 16 18 16q8 0 12 -2l97 -34q16 -7 16 -21z" />
<glyph unicode="M" horiz-adv-x="1441" d="M1395 25q0 -25 -25 -25h-422q-25 0 -24 25v84q0 25 24 24h142l-29 981q0 6 2 96q-8 -86 -29 -145l-246 -715q-8 -23 -32 -22h-60q-23 0 -30 22l-238 715q-18 57 -29 145q2 -51 2 -96v-47l-28 -934h143q25 0 25 -24v-84q0 -25 -25 -25h-420q-25 0 -24 25v84q0 25 24 24 h113l65 1139h-143q-25 0 -25 24v84q0 25 25 25h299q23 0 31 -23l241 -706q18 -55 29 -127q12 88 27 127l246 706q8 23 30 23h301q25 0 25 -25v-84q0 -25 -25 -24h-139l66 -1139h108q25 0 25 -24v-84z" />
<glyph unicode="N" horiz-adv-x="1175" d="M1163 1296q0 -25 -24 -24h-129v-1243q0 -29 -29 -29h-111q-20 0 -30 20l-473 1014q-35 76 -60 178q20 -104 21 -186v-893h131q25 0 24 -24v-84q0 -25 -24 -25h-410q-25 0 -24 25v84q0 25 24 24h129v1139h-129q-25 0 -24 24v84q0 25 24 25h287q23 0 33 -21l452 -954 q29 -61 53 -158q-14 86 -14 164v836h-129q-25 0 -24 24v84q0 25 24 25h408q25 0 24 -25v-84z" />
<glyph unicode="O" horiz-adv-x="1138" d="M1030 705q0 -733 -473 -734q-451 0 -451 723q0 739 480 740q444 0 444 -729zM848 690q0 336 -78 488q-61 119 -201 118q-150 0 -211 -129q-70 -147 -69 -460q0 -317 80 -480q59 -119 198 -118q152 0 211 129q70 149 70 452z" />
<glyph unicode="P" d="M995 1028q0 -283 -207 -389q-88 -45 -237 -45h-150v-461h154q25 0 25 -24v-84q0 -25 -25 -25h-451q-25 0 -24 25v84q0 25 24 24h129v1139h-129q-25 0 -24 24v84q0 25 24 25h476q186 0 262 -45q153 -90 153 -332zM823 1026q0 178 -116 221q-45 16 -144 17h-162v-523h138 q137 0 194 47q90 74 90 238z" />
<glyph unicode="Q" horiz-adv-x="1138" d="M1120 -47q0 -10 -8 -16l-108 -74q-6 -6 -19 -6q-57 0 -213 168q-100 -53 -215 -54q-451 0 -451 727q0 735 474 736q451 0 450 -732q0 -373 -139 -571q55 -59 219 -162q10 -6 10 -16zM848 690q0 336 -78 488q-61 119 -201 118q-150 0 -211 -129q-70 -147 -69 -460 q0 -317 78 -480q57 -119 198 -118q154 0 213 129q70 149 70 452z" />
<glyph unicode="R" horiz-adv-x="1138" d="M1139 25q0 -25 -25 -25h-201q-25 0 -36 23l-326 614h-150v-504h131q25 0 25 -24v-84q0 -25 -25 -25h-428q-25 0 -24 25v84q0 25 24 24h129v1139h-129q-25 0 -24 24v84q0 25 24 25h474q174 0 258 -43q156 -80 155 -307q0 -309 -268 -404l291 -518h100q25 0 25 -24v-84z M819 1042q0 156 -100 207q-45 23 -154 23h-164v-506h160q109 0 168 47q90 71 90 229z" />
<glyph unicode="S" horiz-adv-x="987" d="M901 371q0 -178 -119.5 -289t-314.5 -111q-90 0 -210 31t-157 66q-14 12 -14 41v237q0 25 25 25h92q25 0 24 -25v-168q141 -55 248 -55q111 0 177.5 62.5t66.5 164.5q0 96 -49 154.5t-207 146.5q-199 111 -260 183q-84 96 -84 231q0 162 113.5 265.5t293.5 103.5 q186 0 318 -84q18 -12 18 -39v-236q0 -25 -24 -24h-93q-25 0 -24 24v168q-100 41 -201 41q-221 0 -221 -201q0 -80 41 -130t158 -115q248 -139 305 -205q98 -112 98 -262z" />
<glyph unicode="T" horiz-adv-x="911" d="M899 1030q0 -25 -25 -24h-92q-25 0 -24 24v238h-215v-1135h145q25 0 25 -24v-84q0 -25 -25 -25h-457q-25 0 -24 25v84q0 25 24 24h144v1135h-215v-238q0 -25 -25 -24h-92q-25 0 -25 24v346q0 29 29 29h823q29 0 29 -31v-344z" />
<glyph unicode="U" horiz-adv-x="1251" d="M1217 1296q0 -25 -25 -24h-131v-895q0 -188 -103 -289q-121 -117 -344 -117q-422 0 -421 406v895h-130q-25 0 -24 24v84q0 25 24 25h429q25 0 24 -25v-84q0 -25 -24 -24h-132v-889q0 -150 60.5 -212t202.5 -62q276 0 276 274v889h-129q-25 0 -25 24v84q0 25 25 25h422 q25 0 25 -25v-84z" />
<glyph unicode="V" d="M1051 1296q0 -25 -25 -24h-76l-338 -1249q-6 -23 -30 -23h-144q-25 0 -30 23l-334 1249h-84q-25 0 -25 24v84q0 25 25 25h383q25 0 24 -25v-84q0 -25 -24 -24h-123l229 -957q4 -25 15 -73l8 -41l8 -47q14 88 31 157l237 961h-110q-25 0 -25 24v84q0 25 25 25h358 q25 0 25 -25v-84z" />
<glyph unicode="W" horiz-adv-x="1441" d="M1468 1296q0 -25 -24 -24h-86l-266 -1247q-6 -25 -29 -25h-135q-27 0 -31 25l-174 1118l-213 -1118q-4 -25 -29 -25h-127q-27 0 -30 25l-238 1247h-88q-25 0 -25 24v84q0 25 25 25h385q25 0 25 -25v-84q0 -25 -25 -24h-131l156 -889q10 -57 18 -242q4 84 23 236l198 1003 q4 25 31 25h108q27 0 31 -25l168 -1011q12 -70 23 -236q2 74 18 236l166 903h-129q-25 0 -25 24v84q0 25 25 25h381q25 0 24 -25v-84z" />
<glyph unicode="X" horiz-adv-x="1062" d="M1073 25q0 -25 -24 -25h-394q-25 0 -24 25v84q0 25 24 24h111l-195 367q-25 47 -43 98l-10 -25l-33 -71l-192 -369h108q25 0 25 -24v-84q0 -25 -25 -25h-391q-23 0 -22 25v84q0 25 22 24h99l323 600l-295 539h-94q-25 0 -25 24v84q0 25 25 25h393q25 0 25 -25v-84 q0 -25 -25 -24h-114l159 -295q20 -39 49 -107q23 57 56 117l151 285h-96q-25 0 -25 24v84q0 25 25 25h373q25 0 24 -25v-84q0 -25 -24 -24h-94l-299 -535l333 -604h95q25 0 24 -24v-84z" />
<glyph unicode="Y" horiz-adv-x="985" d="M1042 1296q0 -25 -24 -24h-86l-348 -676v-463h143q25 0 25 -24v-84q0 -25 -25 -25h-457q-25 0 -24 25v84q0 25 24 24h146v459l-361 680h-78q-25 0 -24 24v84q0 25 24 25h394q25 0 24 -25v-84q0 -25 -24 -24h-119l197 -404q31 -63 55 -127q20 55 55 129l189 402h-123 q-25 0 -25 24v84q0 25 25 25h393q25 0 24 -25v-84z" />
<glyph unicode="Z" horiz-adv-x="987" d="M973 270q0 -2 -2 -10l-86 -235q-8 -25 -35 -25h-735q-29 0 -29 29v106l602 1127h-409v-154q0 -25 -25 -25h-92q-25 0 -25 25v266q0 31 31 31h688q29 0 29 -29v-98l-604 -1133h489l59 166q6 16 19 17q8 0 12 -2l96 -35q17 -7 17 -21z" />
<glyph unicode="[" horiz-adv-x="757" d="M647 -391q0 -29 -29 -29h-352q-29 0 -28 29v1827q0 29 28 28h352q29 0 29 -28v-70q0 -29 -29 -29h-223v-1630h223q29 0 29 -29v-69z" />
<glyph unicode="\" d="M1069 -455q0 -14 -29 -14h-77q-27 0 -35 20l-793 1905q-6 14 -6 21q0 14 27 14h82q25 0 32 -21l793 -1904q6 -15 6 -21z" />
<glyph unicode="]" horiz-adv-x="757" d="M520 -391q0 -29 -28 -29h-353q-29 0 -28 29v69q0 29 28 29h223v1630h-225q-27 0 -26 29v70q0 29 26 28h355q29 0 28 -28v-1827z" />
<glyph unicode="^" horiz-adv-x="1052" d="M1030 788h-158l-305 506l-301 -506h-157l366 621h191z" />
<glyph unicode="_" horiz-adv-x="1052" d="M1053 -260h-1053v110h1053v-110z" />
<glyph unicode="`" d="M625 1188q0 -4 -11 -19l-24 -34q-4 -10 -15 -11q-8 0 -20 6l-334 175q-18 10 -18 20q0 6 8 18l59 87q12 16 21 16q6 0 20 -10l297 -228q17 -12 17 -20z" />
<glyph unicode="a" horiz-adv-x="948" d="M920 25q0 -25 -25 -25h-174q-47 0 -78 109q-131 -129 -295 -129q-123 0 -194.5 75.5t-71.5 204.5q0 348 539 356v68q0 98 -42 140t-143 42q-104 0 -235 -59q-12 -4 -15 -4q-10 0 -14 10l-31 82l-2 16q0 29 110.5 62t211.5 33q313 0 313 -287v-387q0 -131 25 -205h96 q25 0 25 -25v-77zM621 225v264q-381 -2 -381 -217q0 -72 41 -117.5t104 -45.5q101 -1 236 116z" />
<glyph unicode="b" d="M920 557q0 -586 -377 -586q-145 0 -260 101q-39 -92 -68 -92q-8 2 -16 6l-86 55q-6 4 -7 10q0 6 7 15q57 78 57 215v1060h-123q-25 0 -24 25v78q0 25 24 24h260q18 0 19 -18v-539q145 100 268 101q326 0 326 -455zM754 535q0 180 -45 261t-146 81q-88 0 -239 -103v-584 q98 -80 208 -79q222 0 222 424z" />
<glyph unicode="c" horiz-adv-x="872" d="M811 78q0 -10 -37 -29q-150 -78 -287 -78q-180 0 -282.5 132.5t-102.5 367.5q0 250 112 395.5t304 145.5q143 0 264 -78q23 -14 23 -39v-176q0 -25 -25 -25h-86q-25 0 -24 25v117q-88 41 -150 41q-113 0 -174 -80q-72 -92 -72 -303q0 -383 234 -383q102 0 237 77l15 5 q8 0 12 -13l35 -86q4 -10 4 -16z" />
<glyph unicode="d" horiz-adv-x="1060" d="M1018 25q0 -25 -23 -25h-182q-43 0 -61 104q-184 -133 -320 -133q-154 0 -241 141.5t-87 389.5q0 238 99.5 374t271.5 136q111 0 236 -66v395h-140q-25 0 -24 25v78q0 25 24 24h271q23 -2 22 -22v-1122q0 -129 27 -197h104q23 0 23 -25v-77zM711 229v580q-121 66 -217 65 q-119 0 -171.5 -86t-52.5 -278q0 -213 46 -306t151 -93q113 -1 244 118z" />
<glyph unicode="e" horiz-adv-x="948" d="M883 494q0 -37 -23 -37h-588q16 -346 271 -346q109 0 237 73q10 6 21 6q8 0 14 -10l37 -80q4 -8 4 -14q0 -23 -74 -57q-123 -57 -252 -58q-195 0 -310.5 140.5t-115.5 377.5q0 238 111 380.5t295 142.5q258 0 342 -246q31 -90 31 -272zM717 584q-6 303 -217 303 q-209 0 -228 -303h445z" />
<glyph unicode="f" horiz-adv-x="606" d="M719 1411l-2 -12l-35 -84q-4 -12 -16 -12q-6 0 -19 6q-88 43 -160 43q-76 0 -104 -60q-18 -37 -18 -151v-158h297q23 0 22 -14q0 -4 -4 -13l-27 -82q-6 -18 -24 -18h-264v-729h145q25 0 25 -25v-77q0 -25 -25 -25h-414q-25 0 -24 25v77q0 25 24 25h115v729h-135 q-25 0 -25 23v79q0 25 25 25h135v160q0 166 53 237q78 102 230 103q72 0 148.5 -24.5t76.5 -47.5z" />
<glyph unicode="g" d="M909 946q0 -6 -12 -26q-51 -82 -51 -207v-316q0 -162 10 -350q4 -76 4 -119q0 -360 -360 -360q-166 0 -307 76q-37 20 -37 34q0 6 4 15l37 82q6 12 14 12t16 -6q141 -76 267 -76q131 0 182 74q31 45 31 149q0 47 -2.5 103.5t-2.5 107.5q-133 -113 -282 -112 q-145 0 -230.5 122.5t-85.5 333.5q0 254 100.5 391.5t284.5 137.5q121 0 246 -86q33 94 58 94q8 0 16 -4l92 -58q8 -4 8 -12zM692 266v553q-113 57 -192 58q-236 0 -236 -357q0 -354 185 -354q104 0 243 100z" />
<glyph unicode="h" horiz-adv-x="1099" d="M1059 25q0 -25 -23 -25h-248q-25 0 -24 25v682q0 98 -29.5 135t-109.5 37q-117 0 -273 -129v-623h117q25 0 25 -25v-77q0 -25 -25 -25h-387q-25 0 -25 25v77q0 25 25 25h117v1214h-125q-25 0 -25 25v78q0 25 25 24h258q20 0 20 -22v-569q150 135 316 135q168 0 225 -119 q27 -55 27 -191v-575h116q23 0 23 -25v-77z" />
<glyph unicode="i" horiz-adv-x="569" d="M420 1341q0 -51 -36 -86.5t-87 -35.5t-88 36.5t-37 87.5t37 87t90 36q49 0 85 -37t36 -88zM557 25q0 -25 -25 -25h-450q-25 0 -25 25v77q0 25 25 25h147v729h-163q-23 0 -23 23v79q0 25 23 25h294q23 0 23 -25v-831h149q25 0 25 -25v-77z" />
<glyph unicode="j" horiz-adv-x="530" d="M403 1341q0 -51 -35.5 -86.5t-86.5 -35.5t-88 36.5t-37 87.5t36.5 87t90.5 36q49 0 84.5 -37t35.5 -88zM371 -109q0 -162 -68 -235q-82 -90 -227 -90q-74 0 -163 28.5t-89 51.5q0 8 4 16l39 82q4 12 16 12q2 0 15 -4q98 -51 184 -51q94 0 119 68q16 45 16 159v928h-164 q-23 0 -22 23v79q0 25 22 25h295q23 0 23 -25v-1067z" />
<glyph unicode="k" d="M1016 25q0 -25 -25 -25h-190q-20 0 -35 16l-414 488v-377h117q25 0 25 -25v-77q0 -25 -25 -25h-385q-25 0 -25 25v77q0 25 25 25h115v1214h-125q-25 0 -25 25v78q0 25 25 24h256q23 -2 22 -22v-914l326 332h-100q-25 0 -25 25v69q0 25 25 25h387q25 0 24 -25v-77 q0 -25 -24 -25h-105l-332 -324l357 -405h106q25 0 25 -25v-77z" />
<glyph unicode="l" horiz-adv-x="530" d="M543 31q0 -16 -58.5 -33.5t-115.5 -17.5q-176 0 -209 143q-10 45 -10 252v966h-125q-25 0 -25 25v78q0 25 25 24h258q20 0 20 -22v-1075q0 -141 6 -187q10 -78 82 -78q43 0 92 25q12 4 17 4q10 0 14 -14l25 -76q4 -12 4 -14z" />
<glyph unicode="m" horiz-adv-x="1517" d="M1477 25q0 -25 -25 -25h-244q-23 0 -22 25v704q0 150 -131 150q-88 0 -207 -82v-670h115q25 0 24 -25v-77q0 -25 -24 -25h-246q-23 0 -23 25v702q0 152 -131 152q-88 0 -207 -88v-664h119q25 0 25 -25v-77q0 -25 -25 -25h-385q-25 0 -24 25v77q0 25 24 25h115v633 q0 53 -17 96h-112q-25 0 -25 25v77q0 25 25 25h198q31 0 60 -94q152 123 289 123q147 0 196 -121q168 121 299 121q133 0 185 -90q35 -61 34 -199v-596h115q25 0 25 -25v-77z" />
<glyph unicode="n" horiz-adv-x="1099" d="M1059 25q0 -25 -25 -25h-246q-23 0 -22 25v684q0 170 -137 170q-125 0 -269 -129v-623h115q25 0 25 -25v-77q0 -25 -25 -25h-385q-25 0 -24 25v77q0 25 24 25h115v600q0 78 -12 129h-117q-25 0 -25 25v77q0 25 25 25h207q39 0 63 -111q172 139 330 140q154 0 209 -99 q35 -61 35 -206v-580h114q25 0 25 -25v-77z" />
<glyph unicode="o" d="M920 498q0 -248 -111 -387.5t-309 -139.5q-186 0 -291 136.5t-105 379.5q0 248 111 386.5t309 138.5q186 0 291 -136t105 -378zM754 500q0 383 -244 383q-240 0 -240 -375q0 -211 64 -318q53 -90 180 -90q121 0 174 86q66 107 66 314z" />
<glyph unicode="p" d="M920 512q0 -252 -91.5 -396.5t-248.5 -144.5q-115 0 -242 90v-348h129q25 0 25 -24v-78q0 -25 -25 -25h-401q-25 0 -25 25v78q0 25 25 24h118v985q0 106 -20 158h-113q-23 0 -22 25v77q0 25 22 25h180q31 0 43.5 -14.5t34.5 -77.5q154 121 295 121q178 0 247 -140.5 t69 -359.5zM754 506q0 178 -31 262q-39 106 -148 106q-90 0 -237 -100v-577q131 -86 223 -86q104 0 148.5 91t44.5 304z" />
<glyph unicode="q" d="M1001 -389q0 -25 -24 -25h-404q-25 0 -24 25v78q0 25 24 24h129v379q-129 -121 -272 -121q-150 0 -238 136.5t-88 369.5q0 250 98.5 392.5t270.5 142.5q135 0 272 -99q41 102 62 103q6 0 12 -4l86 -51q10 -6 10 -17q0 -4 -4 -14l-8 -17q-45 -96 -45 -202v-998h119 q25 0 24 -24v-78zM702 227v570q-121 78 -217 77q-215 0 -215 -378q0 -211 60 -308q49 -78 141 -77q100 -1 231 116z" />
<glyph unicode="r" horiz-adv-x="681" d="M686 979q0 -6 -4 -16l-49 -113q-6 -8 -10 -8q-2 0 -9 2q-49 14 -61 14q-61 0 -195 -156v-575h131q25 0 25 -25v-77q0 -25 -25 -25h-401q-23 0 -22 25v77q0 25 22 25h117v512q0 147 -23 217h-108q-25 0 -25 25v77q0 25 25 25h184q53 0 80 -143l82 90q80 82 164 82 q33 0 67.5 -11.5t34.5 -21.5z" />
<glyph unicode="s" horiz-adv-x="796" d="M727 264q0 -133 -89 -213t-239 -80q-96 0 -204.5 35t-108.5 68v190q0 25 25 25h86q25 0 24 -25v-119q104 -41 185 -41q74 0 118.5 41t44.5 109q0 92 -131 152q-162 74 -229 129q-94 76 -94 192q0 125 87 205t224 80q125 0 242 -60q23 -12 22 -34v-179q0 -25 -24 -24h-86 q-25 0 -25 24v113q-70 29 -131 29q-156 0 -156 -138q0 -61 41 -100q23 -20 50.5 -35.5t162.5 -81.5q115 -55 160 -113.5t45 -148.5z" />
<glyph unicode="t" horiz-adv-x="681" d="M686 61q0 -25 -94 -53t-172 -28q-193 0 -238 149q-12 41 -12 150v577h-145q-25 0 -25 23v79q0 25 25 25h145v281q0 20 20 26l107 29q10 4 12 4q14 0 15 -25v-315h307q18 0 18 -14q0 -4 -2 -13l-22 -79q-6 -20 -29 -21h-272v-577q0 -98 20 -125q31 -41 102 -41 q63 0 185 51q10 4 14 4q10 0 14 -12l23 -84q4 -9 4 -11z" />
<glyph unicode="u" horiz-adv-x="1099" d="M1049 25q0 -25 -25 -25h-178q-43 0 -74 96q-154 -125 -303 -125q-283 0 -283 275v610h-114q-25 0 -25 25v77q0 25 25 25h243q25 0 25 -25v-610q0 -135 31.5 -186t115.5 -51q139 0 258 106v639h-124q-25 0 -25 25v77q0 25 25 25h253q25 0 25 -25v-686q0 -84 19 -145h106 q25 0 25 -25v-77z" />
<glyph unicode="v" horiz-adv-x="909" d="M930 881q0 -25 -25 -25h-59l-338 -852q-8 -18 -27 -18h-80q-18 0 -24 18l-314 852h-67q-25 0 -25 25v77q0 25 25 25h346q25 0 25 -25v-69q0 -25 -25 -25h-113l217 -678q14 53 41 127l199 551h-121q-25 0 -24 25v69q0 25 24 25h340q25 0 25 -25v-77z" />
<glyph unicode="w" horiz-adv-x="1290" d="M1325 881q0 -25 -25 -25h-79l-246 -850q-6 -20 -27 -20h-78q-20 0 -26 20l-160 621q-8 31 -20 118l-7 43q-6 -74 -32 -159l-193 -625q-6 -18 -24 -18h-76q-23 0 -27 20l-211 850h-76q-25 0 -24 25v77q0 25 24 25h357q25 0 24 -25v-69q0 -25 -24 -25h-133l125 -592 q2 -10 14 -79q2 20 25 112l194 664q6 18 25 18h82q23 0 26 -18l182 -770q2 12 17 80l145 585h-110q-25 0 -25 25v69q0 25 25 25h333q25 0 25 -25v-77z" />
<glyph unicode="x" horiz-adv-x="987" d="M956 25q0 -25 -22 -25h-330q-25 0 -24 25v69q0 25 24 25h74l-125 190q-6 8 -21 31l-20 33l-12 22q-10 -14 -29 -45q-8 -12 -27 -37l-135 -194h94q25 0 25 -25v-69q0 -25 -25 -25h-346q-25 0 -24 25v77q0 25 24 25h76l287 375l-250 354h-92q-25 0 -25 25v77q0 25 25 25 h342q25 0 24 -25v-69q0 -25 -24 -25h-78l96 -147q18 -27 62 -99l37 58l28 41l103 147h-78q-25 0 -25 25v69q0 25 25 25h319q25 0 25 -25v-77q0 -25 -25 -25h-71l-254 -336l272 -393h78q23 0 22 -25v-77z" />
<glyph unicode="y" horiz-adv-x="909" d="M956 881q0 -25 -24 -25h-76l-209 -729q-74 -256 -137 -391q-80 -168 -246 -168q-76 0 -168 37t-92 65q0 6 4 13l41 81q4 10 14 11q6 0 15 -6q106 -72 182 -72q102 0 158 174l41 129h-74q-18 0 -25 18l-297 838h-81q-25 0 -25 25v77q0 25 25 25h374q25 0 25 -25v-69 q0 -25 -25 -25h-131l226 -657q16 -49 41 -148l32 144l172 661h-121q-25 0 -24 25v69q0 25 24 25h357q25 0 24 -25v-77z" />
<glyph unicode="z" horiz-adv-x="872" d="M858 252l-2 -14l-88 -220q-8 -18 -29 -18h-639q-25 0 -24 25v81l520 750h-342v-145q0 -25 -25 -25h-86q-25 0 -24 25v247q0 25 22 25h623q23 0 22 -25v-84l-510 -741h383l64 158q6 16 18 16q6 0 13 -2l88 -35q16 -6 16 -18z" />
<glyph unicode="{" horiz-adv-x="872" d="M766 -391q0 -29 -29 -29h-39q-178 0 -260 75t-82 236v406q0 98 -42 140t-138 42h-41q-29 0 -29 29v70q0 29 29 28h39q98 0 140 42t42 140v365q0 162 82 236.5t260 74.5h39q29 0 29 -28v-70q0 -29 -29 -29h-35q-104 0 -147 -41t-43 -141v-364q0 -98 -30.5 -153.5 t-110.5 -94.5q80 -41 110.5 -95.5t30.5 -152.5v-406q0 -96 42 -139t136 -43h47q29 0 29 -29v-69z" />
<glyph unicode="|" horiz-adv-x="1052" d="M653 -350h-168v1755h168v-1755z" />
<glyph unicode="}" horiz-adv-x="872" d="M766 467q0 -29 -29 -29h-41q-96 0 -138 -42t-42 -140v-365q0 -162 -82 -236.5t-260 -74.5h-39q-29 0 -29 29v69q0 29 29 29h35q104 0 147 41t43 141v365q0 98 31 152.5t111 95.5q-82 43 -112 96t-30 152v405q0 96 -42 139t-136 43h-47q-29 0 -29 29v70q0 29 29 28h39 q178 0 260 -74.5t82 -236.5v-405q0 -98 42 -140.5t138 -42.5h41q29 0 29 -28v-70z" />
<glyph unicode="~" horiz-adv-x="1404" d="M1251 1464q-115 -240 -284 -239q-74 0 -242 84q-139 70 -205 69q-98 0 -188 -155l-90 69q115 238 284 238q80 0 242 -82q141 -72 201 -72q104 0 192 158z" />
<glyph unicode="&#xa1;" horiz-adv-x="681" d="M485 866q0 -59 -43 -101t-102 -42t-101 43t-42 102t43 101.5t104 42.5q57 0 99 -43.5t42 -102.5zM449 -403q0 -18 -29 -19h-154q-29 0 -26 29l45 807q2 27 28 26h58q27 0 28 -26z" />
<glyph unicode="&#xa2;" d="M903 1065q0 -8 -6 -16l-43 -78q-6 -12 -16 -13q-8 0 -19 7q-84 51 -157 61v-750q70 12 169 66q10 6 17 6q10 0 12 -12l35 -86q4 -8 4 -14q0 -20 -78 -52t-159 -47v-121q0 -27 -29 -26h-51q-29 0 -29 26v113q-174 14 -267 143t-93 355q0 231 96 374.5t264 161.5v109 q0 29 29 28h51q29 0 29 -28v-107q115 -14 196 -59q45 -25 45 -41zM553 272v750q-203 -47 -203 -371q0 -344 203 -379z" />
<glyph unicode="&#xa3;" d="M1047 119q0 -4 -7 -17l-30 -82q-10 -20 -33 -20h-842q-29 0 -29 29v77q0 29 29 29h174q31 139 31 244q0 111 -35 252h-184q-29 0 -29 28v76q0 29 29 29h155q-33 129 -32 211q0 166 117.5 267t310.5 101q96 0 197.5 -30.5t101.5 -59.5q0 -8 -4 -16l-39 -78q-8 -12 -17 -12 q-10 0 -22 6q-113 57 -227 57q-119 0 -192 -63.5t-73 -165.5q0 -68 31 -217h274q29 0 29 -29v-76q0 -29 -29 -28h-243q37 -158 37 -256q0 -104 -31 -238h553q29 0 29 -18z" />
<glyph unicode="&#xa4;" horiz-adv-x="1083" d="M1042 289q0 -6 -12 -19l-55 -55q-12 -12 -21 -12q-6 0 -18 12l-102 102q-123 -84 -306 -84q-168 0 -282 78l-96 -96q-12 -12 -21 -12q-6 0 -18 12l-56 55q-12 12 -12 21q0 8 12 18l97 99q-78 125 -78 290q0 168 82 295l-101 103q-12 10 -12 20q0 6 12 19l56 55 q12 12 20 12q6 0 19 -12l102 -103q121 82 301 82q168 0 287 -75l96 96q10 12 20 12q6 0 19 -12l55 -55q12 -12 12 -21q0 -6 -12 -18l-98 -99q80 -125 80 -288q0 -172 -84 -297l102 -103q12 -12 12 -20zM846 709q0 326 -305 325q-301 0 -301 -319q0 -184 79 -269 q74 -78 226 -77q147 0 219 73q82 85 82 267z" />
<glyph unicode="&#xa5;" d="M1028 1296q0 -25 -22 -24h-88l-213 -451h262q23 0 22 -24v-43q0 -25 -22 -25h-305l-64 -131h369q23 0 22 -25v-43q0 -25 -22 -24h-369v-373h143q25 0 25 -24v-84q0 -25 -25 -25h-452q-25 0 -25 25v84q0 25 25 24h145v373h-377q-23 0 -22 24v43q0 25 22 25h373l-65 131 h-308q-23 0 -22 25v43q0 25 22 24h262l-219 451h-75q-25 0 -25 24v84q0 25 25 25h378q25 0 25 -25v-84q0 -25 -25 -24h-122l182 -404q20 -41 59 -131q10 29 56 133l174 402h-127q-25 0 -25 24v84q0 25 25 25h381q23 0 22 -25v-84z" />
<glyph unicode="&#xa6;" horiz-adv-x="1052" d="M653 700h-168v705h168v-705zM653 -350h-168v674h168v-674z" />
<glyph unicode="&#xa7;" d="M864 436q0 -178 -243 -315q115 -63 158.5 -119.5t43.5 -140.5q0 -125 -98 -210t-242 -85q-88 0 -205.5 45t-117.5 80q0 6 8 22l37 74q8 16 18 16t19 -8q141 -94 254 -94q72 0 116.5 41t44.5 104q0 66 -42 108t-183 112q-160 80 -216 144t-56 167q0 190 239 315 q-190 90 -190 242q0 119 93 196.5t235 77.5q82 0 173 -34.5t91 -65.5q0 -4 -8 -21l-37 -77q-8 -16 -17 -17q-8 0 -53 29q-74 47 -162 47q-72 0 -115.5 -35t-43.5 -92q0 -59 57 -100q39 -27 168 -94q156 -80 215 -148t59 -164zM709 416q0 66 -45.5 112.5t-163.5 104.5 q-182 -98 -183 -238q0 -94 86 -147q20 -12 109 -60q197 107 197 228z" />
<glyph unicode="&#xa8;" d="M823 1290q0 -45 -32.5 -76.5t-77.5 -31.5t-77 32.5t-32 77.5t33 77t78 32t76.5 -33t31.5 -78zM420 1290q0 -45 -32 -76.5t-77 -31.5t-77.5 32.5t-32.5 77.5t32.5 77t77.5 32t77 -33t32 -78z" />
<glyph unicode="&#xa9;" horiz-adv-x="1447" d="M1378 702q0 -301 -191.5 -515t-461.5 -214t-462.5 214t-192.5 513q0 307 192.5 519.5t470.5 212.5q264 0 454.5 -215.5t190.5 -514.5zM1270 700q0 264 -160 446.5t-391 182.5q-223 0 -382 -184t-159 -443q0 -260 161 -443t386 -183t385 183t160 441zM946 362 q0 -23 -16 -34q-88 -63 -203 -64q-311 0 -311 447q0 430 301 430q123 0 207 -64q16 -12 16 -33v-131q0 -29 -29 -28h-59q-29 0 -29 28v93q-55 27 -104 26q-86 0 -123 -71.5t-37 -237.5q0 -350 168 -350q51 0 102 26v95q0 29 29 28h60q29 0 28 -28v-132z" />
<glyph unicode="&#xaa;" horiz-adv-x="645" d="M612 575q0 -27 -26 -26h-109q-37 0 -57 53q-80 -68 -189 -67q-88 0 -139 47t-51 129q0 207 354 219v26q0 96 -108 97q-55 0 -150 -37q-16 -4 -18 -4q-14 0 -21 16l-18 47q-4 8 -4 15q0 25 71.5 47t151.5 22q223 0 223 -182v-223q0 -74 13 -107h51q27 0 26 -26v-46z M395 698v133q-98 -4 -141 -18q-86 -27 -86 -96q0 -84 86 -84q31 0 76 21t65 44z" />
<glyph unicode="&#xab;" horiz-adv-x="985" d="M893 80q0 -6 -21 -19l-55 -30q-14 -6 -18 -6q-8 0 -21 14l-344 432q-8 14 -8 21q0 4 8 18l344 432q12 14 21 14q8 0 16 -6l57 -30q18 -10 19 -19q0 -8 -8 -20l-265 -389l265 -392q10 -14 10 -20zM512 80q0 -8 -18 -19l-58 -30q-12 -6 -18 -6t-19 14l-344 432q-8 10 -8 21 q0 8 8 18l344 432q8 14 21 14q8 0 16 -6l58 -30q18 -10 18 -21q0 -6 -8 -18l-264 -389l264 -392q8 -16 8 -20z" />
<glyph unicode="&#xac;" horiz-adv-x="1052" d="M1026 0h-162v438h-751v148h913v-586z" />
<glyph unicode="&#xad;" horiz-adv-x="720" d="M645 475q0 -29 -29 -29h-512q-29 0 -28 29v96q0 29 28 29h512q29 0 29 -29v-96z" />
<glyph unicode="&#xae;" horiz-adv-x="1447" d="M1378 702q0 -301 -191.5 -515t-461.5 -214t-462.5 214t-192.5 513q0 307 192.5 519.5t470.5 212.5q264 0 454.5 -215.5t190.5 -514.5zM1270 700q0 264 -160 446.5t-391 182.5q-223 0 -382 -184t-159 -443q0 -260 161 -443t386 -183t385 183t160 441zM1065 328 q0 -27 -29 -27h-123q-23 0 -34 21l-193 340h-70v-259h66q29 0 29 -26v-49q0 -27 -29 -27h-262q-29 0 -29 27v49q0 27 29 26h65v613h-65q-29 0 -29 26v50q0 27 29 26h289q115 0 163 -24q102 -51 103 -187q0 -172 -156 -231l164 -273h53q29 0 29 -26v-49zM842 901 q0 66 -31 90.5t-109 24.5h-86v-256h82q144 0 144 141z" />
<glyph unicode="&#xaf;" d="M762 1227q0 -29 -29 -29h-444q-29 0 -29 29v71q0 29 29 29h444q29 0 29 -29v-71z" />
<glyph unicode="&#x2c9;" d="M762 1227q0 -29 -29 -29h-444q-29 0 -29 29v71q0 29 29 29h444q29 0 29 -29v-71z" />
<glyph unicode="&#xb0;" d="M829 1116q0 -131 -93 -223t-224 -92t-223 92t-92 223q0 133 93 225.5t226 92.5q129 0 221 -93.5t92 -224.5zM698 1116q0 78 -54 132.5t-134 54.5q-76 0 -129 -54.5t-53 -132.5t53 -132t131 -54t132 54t54 132z" />
<glyph unicode="&#xb1;" d="M979 471q0 -29 -29 -29h-362v-317q0 -29 -29 -29h-96q-29 0 -29 29v317h-360q-29 0 -29 29v96q0 29 29 29h360v362q0 27 29 27h96q29 0 29 -27v-362h362q29 0 29 -29v-96zM989 -84q0 -29 -28 -29h-898q-29 0 -28 29v90q0 29 28 29h898q29 0 28 -29v-90z" />
<glyph unicode="&#xb2;" horiz-adv-x="720" d="M610 584q0 -37 -39 -37h-421q-39 0 -39 37q0 121 45 209q51 98 186 186q78 49 102.5 80t24.5 76q0 104 -104 104q-82 0 -125 -111q-10 -27 -25 -24l-20 2l-56 14q-25 10 -24 29q0 53 55 119q72 86 201 86q109 0 174 -58.5t65 -156.5q0 -80 -42 -136.5t-156 -130.5 q-137 -88 -156 -198h315q39 0 39 -37v-53z" />
<glyph unicode="&#xb3;" horiz-adv-x="720" d="M616 776q0 -111 -81.5 -177.5t-219.5 -66.5q-80 0 -155.5 20.5t-75.5 43.5q0 10 4 18l27 54q8 16 20 16q4 0 35 -12q66 -27 149 -27q162 0 162 135q0 131 -182 131h-47q-31 0 -31 31v47q0 31 31 31h47q160 0 160 129q0 102 -119 102q-68 0 -143 -67q-12 -10 -19 -10 q-8 0 -18 6l-47 39q-10 6 -11 14q0 31 75 78t167 47q109 0 176.5 -57.5t67.5 -149.5q0 -106 -109 -174q137 -60 137 -201z" />
<glyph unicode="&#xb4;" d="M821 1321q0 -6 -18 -16l-336 -175q-16 -8 -21 -8q-8 0 -18 17l-20 30q-8 12 -9 21q0 6 17 18l297 228q14 10 20 10q8 0 21 -16l59 -87q8 -12 8 -22z" />
<glyph unicode="&#xb5;" horiz-adv-x="1099" d="M1051 25q0 -25 -25 -25h-178q-43 0 -74 96q-156 -125 -303 -125q-66 0 -129 21v-383q0 -23 -23 -23h-108q-23 0 -23 23v1352q0 23 23 22h108q23 0 23 -22v-613q0 -135 32 -186t115 -51q135 0 259 106v744q0 23 22 22h109q23 0 22 -22v-689q0 -88 19 -145h106q25 0 25 -25 v-77z" />
<glyph unicode="&#x3bc;" horiz-adv-x="1099" d="M1051 25q0 -25 -25 -25h-178q-43 0 -74 96q-156 -125 -303 -125q-66 0 -129 21v-383q0 -23 -23 -23h-108q-23 0 -23 23v1352q0 23 23 22h108q23 0 23 -22v-613q0 -135 32 -186t115 -51q135 0 259 106v744q0 23 22 22h109q23 0 22 -22v-689q0 -88 19 -145h106q25 0 25 -25 v-77z" />
<glyph unicode="&#xb6;" horiz-adv-x="1251" d="M1143 1300q0 -29 -29 -28h-135v-1624q0 -29 -29 -29h-84q-29 0 -28 29v1624h-133v-1624q0 -29 -29 -29h-84q-29 0 -29 29v710q-92 -14 -155 -14q-377 0 -377 539q0 362 223 477q88 45 309 45h551q29 0 29 -29v-76zM563 487v785q-186 0 -237 -31q-117 -72 -117 -360 q0 -213 61.5 -308.5t198.5 -95.5q43 0 94 10z" />
<glyph unicode="&#xb7;" horiz-adv-x="526" d="M401 500q0 -57 -39.5 -97.5t-97.5 -40.5q-57 0 -97 41t-40 99q0 57 40 96t99 39q55 0 95 -41t40 -96z" />
<glyph unicode="&#xb8;" d="M776 -244q0 -72 -58.5 -117t-150.5 -45q-123 0 -123 39q0 -2 2 15l9 63q0 10 10 10q8 0 12 -2q39 -14 94 -14q82 0 82 47t-100 47q-63 0 -59 27q2 14 2 24l16 150h119l-10 -111q86 -10 120.5 -40t34.5 -93z" />
<glyph unicode="&#xb9;" horiz-adv-x="720" d="M608 578q0 -31 -30 -31h-359q-31 0 -31 31v45q0 31 31 30h125v545l-168 -86q-8 -6 -22 -6q-8 0 -21 18l-16 25l-6 18q0 12 16 23l242 149h71q31 0 31 -30v-656h107q31 0 30 -30v-45z" />
<glyph unicode="&#xba;" horiz-adv-x="684" d="M612 850q0 -152 -73.5 -235t-204.5 -83q-125 0 -193.5 82t-68.5 230q0 150 73.5 232.5t204.5 82.5q123 0 192.5 -82t69.5 -227zM481 852q0 207 -139 207t-139 -205q0 -221 141 -221q137 0 137 219z" />
<glyph unicode="&#xbb;" horiz-adv-x="985" d="M940 489q0 -6 -10 -18l-342 -432q-12 -14 -21 -14q-6 0 -18 6l-57 30q-18 10 -19 19q0 6 10 20l265 389l-265 392q-10 14 -10 20q0 8 19 19l57 30q12 6 18 6t21 -14l342 -432q10 -13 10 -21zM559 489q0 -10 -8 -18l-342 -432q-12 -14 -23 -14q-4 0 -16 6l-57 30 q-18 10 -19 19q0 8 10 20l263 389l-263 392q-10 14 -10 18q0 10 19 21l57 30q12 6 18 6t19 -14l344 -432q8 -9 8 -21z" />
<glyph unicode="&#xbc;" horiz-adv-x="1708" d="M1608 199q0 -31 -31 -31h-96v-154q0 -31 -31 -30h-66q-31 0 -30 30v154h-334q-31 0 -31 31v71l352 514q10 16 25 17q2 0 10 -2l68 -8q29 -4 29 -21q0 -10 -9 -22l-329 -474h219l14 179q2 29 33 28h49q31 0 31 -30v-177h96q31 0 31 -30v-45zM1174 1335q0 -6 -7 -16 l-557 -1337q-8 -20 -39 -21h-77q-27 0 -27 14q0 8 4 19l557 1337q8 20 33 21h84q29 -1 29 -17zM596 578q0 -31 -31 -31h-358q-31 0 -31 31v45q0 31 31 30h125v545l-168 -86q-8 -6 -23 -6q-8 0 -20 18l-17 25l-6 18q0 12 17 23l241 149h72q31 0 31 -30v-656h106q31 0 31 -30 v-45z" />
<glyph unicode="&#xbd;" horiz-adv-x="1705" d="M1556 37q0 -37 -38 -37h-422q-39 0 -39 37q0 121 45 209q51 100 186 186q78 49 102.5 80t24.5 76q0 104 -104 104q-82 0 -125 -110q-10 -27 -25 -25q-14 2 -20 2l-56 16q-25 8 -24 27q0 51 55 117q74 88 201 88q109 0 174 -58.5t65 -156.5q0 -80 -41.5 -136.5 t-156.5 -129.5q-139 -90 -156 -199h316q39 0 38 -37v-53zM1188 1335q0 -6 -6 -16l-557 -1337q-8 -20 -39 -21h-76q-29 0 -29 14q0 4 6 19l557 1337q8 20 31 21h86q27 -1 27 -17zM618 578q0 -31 -30 -31h-359q-31 0 -30 31v45q0 31 30 30h125v545l-168 -86q-8 -6 -22 -6 q-8 0 -21 18l-16 25l-6 18q0 12 16 23l242 149h72q31 0 30 -30v-656h107q31 0 30 -30v-45z" />
<glyph unicode="&#xbe;" horiz-adv-x="1708" d="M1610 199q0 -31 -31 -31h-94v-154q0 -31 -31 -30h-65q-31 0 -31 30v154h-334q-31 0 -31 31v71l353 514q10 16 24 17q2 0 10 -2l68 -8q29 -4 29 -21q0 -10 -9 -22l-329 -474h221l12 179q2 29 33 28h49q31 0 31 -30v-177h94q31 0 31 -30v-45zM1231 1335q0 -6 -4 -16 l-559 -1337q-8 -20 -37 -21h-78q-27 0 -27 14q0 8 4 19l557 1337q8 20 33 21h84q27 -1 27 -17zM641 776q0 -111 -82 -177.5t-219 -66.5q-80 0 -155.5 20.5t-75.5 43.5q0 10 4 18l26 54q8 16 21 16q4 0 35 -12q66 -27 149 -27q162 0 162 135q0 131 -182 131h-48q-31 0 -30 31 v47q0 31 30 31h48q160 0 159 129q0 102 -118 102q-68 0 -144 -67q-12 -10 -18 -10q-8 0 -19 6l-47 39q-10 6 -10 14q0 31 74.5 78t167.5 47q109 0 176 -57.5t67 -149.5q0 -106 -108 -174q137 -60 137 -201z" />
<glyph unicode="&#xbf;" horiz-adv-x="872" d="M625 866q0 -57 -42 -100t-102 -43q-61 0 -103 43t-42 102t43 101.5t104 42.5q57 0 99.5 -43.5t42.5 -102.5zM770 -352q0 -29 -104.5 -58.5t-206.5 -29.5q-168 0 -262.5 84t-94.5 235q0 264 314 348v185q0 29 28 28h82q29 0 29 -28v-252q0 -31 -35 -41q-111 -31 -170 -66 q-86 -51 -86 -170q0 -182 211 -182q104 0 225 49q10 4 19 4q14 0 18 -14l29 -78q4 -10 4 -14z" />
<glyph unicode="&#xc0;" horiz-adv-x="1175" d="M758 1599q0 -4 -8 -18l-23 -39q-6 -10 -16 -10q-4 0 -21 6l-356 141q-20 8 -21 21q0 8 6 18l54 92q10 16 20 17q10 0 21 -8l325 -199q19 -11 19 -21zM1188 25q0 -25 -25 -25h-415q-25 0 -25 25v84q0 25 25 24h126l-81 289h-416l-82 -289h133q25 0 25 -24v-84 q0 -25 -25 -25h-412q-25 0 -24 25v84q0 25 24 24h99l383 1249q6 23 30 23h121q25 0 31 -23l383 -1249h100q25 0 25 -24v-84zM754 563l-123 451q-27 96 -47 196q-16 -80 -47 -194l-121 -453h338z" />
<glyph unicode="&#xc1;" horiz-adv-x="1175" d="M864 1698q0 -10 -20 -19l-361 -143q-10 -4 -18 -4q-10 0 -19 16l-18 33q-8 10 -8 21q0 8 18 18l326 199q10 8 18 8q10 0 21 -17l53 -92q8 -10 8 -20zM1188 25q0 -25 -25 -25h-415q-25 0 -25 25v84q0 25 25 24h126l-81 289h-416l-82 -289h133q25 0 25 -24v-84 q0 -25 -25 -25h-412q-25 0 -24 25v84q0 25 24 24h99l383 1249q6 23 30 23h121q25 0 31 -23l383 -1249h100q25 0 25 -24v-84zM754 563l-123 451q-27 96 -47 196q-16 -80 -47 -194l-121 -453h338z" />
<glyph unicode="&#xc2;" horiz-adv-x="1175" d="M864 1595q0 -4 -8 -18l-25 -31q-12 -14 -20 -14t-20 6l-201 109l-201 -109q-12 -6 -20 -6t-21 14l-24 31q-8 10 -9 20q0 10 15 21l221 151q25 16 39 17q12 0 37 -17l223 -151q14 -11 14 -23zM1188 25q0 -25 -25 -25h-415q-25 0 -25 25v84q0 25 25 24h126l-81 289h-416 l-82 -289h133q25 0 25 -24v-84q0 -25 -25 -25h-412q-25 0 -24 25v84q0 25 24 24h99l383 1249q6 23 30 23h121q25 0 31 -23l383 -1249h100q25 0 25 -24v-84zM754 563l-123 451q-27 96 -47 196q-16 -80 -47 -194l-121 -453h338z" />
<glyph unicode="&#xc3;" horiz-adv-x="1175" d="M901 1726q0 -37 -56.5 -99t-137.5 -62q-47 0 -127 43q-72 39 -109 39q-55 0 -90 -62q-8 -16 -21 -16q-6 0 -12 4l-57 22q-16 6 -17 19q0 31 60 98q53 61 133 62q57 0 176 -66q31 -16 57 -16q63 0 97 61q8 16 18 16l14 -2l56 -24q16 -9 16 -17zM1188 25q0 -25 -25 -25 h-415q-25 0 -25 25v84q0 25 25 24h126l-81 289h-416l-82 -289h133q25 0 25 -24v-84q0 -25 -25 -25h-412q-25 0 -24 25v84q0 25 24 24h99l383 1249q6 23 30 23h121q25 0 31 -23l383 -1249h100q25 0 25 -24v-84zM754 563l-123 451q-27 96 -47 196q-16 -80 -47 -194l-121 -453 h338z" />
<glyph unicode="&#xc4;" horiz-adv-x="1175" d="M909 1661q0 -45 -32.5 -79t-79.5 -34t-80 33t-33 80t34 80t81 33q45 0 77.5 -34t32.5 -79zM496 1663q0 -47 -33 -81t-80 -34t-81 34t-34 81t34 80t81 33t80 -33t33 -80zM1188 25q0 -25 -25 -25h-415q-25 0 -25 25v84q0 25 25 24h126l-81 289h-416l-82 -289h133 q25 0 25 -24v-84q0 -25 -25 -25h-412q-25 0 -24 25v84q0 25 24 24h99l383 1249q6 23 30 23h121q25 0 31 -23l383 -1249h100q25 0 25 -24v-84zM754 563l-123 451q-27 96 -47 196q-16 -80 -47 -194l-121 -453h338z" />
<glyph unicode="&#xc5;" horiz-adv-x="1175" d="M776 1688q0 -78 -55 -133.5t-133 -55.5t-132.5 55.5t-54.5 133.5t55.5 132t135.5 54q76 0 130 -55t54 -131zM1188 25q0 -25 -25 -25h-415q-25 0 -25 25v84q0 25 25 24h126l-81 289h-416l-82 -289h133q25 0 25 -24v-84q0 -25 -25 -25h-412q-25 0 -24 25v84q0 25 24 24h99 l383 1249q6 23 30 23h121q25 0 31 -23l383 -1249h100q25 0 25 -24v-84zM674 1688q0 37 -25.5 63.5t-60.5 26.5t-59.5 -27t-24.5 -63q0 -39 25.5 -66t60.5 -27t59.5 27t24.5 66zM754 563l-123 451q-27 96 -47 196q-16 -80 -47 -194l-121 -453h338z" />
<glyph unicode="&#xc6;" horiz-adv-x="1441" d="M1376 29q0 -29 -28 -29h-789q-25 0 -24 25v84q0 25 24 24h131v293h-379l-131 -293h109q25 0 24 -24v-84q0 -25 -24 -25h-371q-25 0 -24 25v84q0 25 24 24h84l598 1251q10 20 31 21h702q29 0 29 -31v-276q0 -25 -25 -25h-92q-25 0 -24 25v162h-363v-461h402q29 0 28 -29 v-80q0 -29 -28 -28h-402v-517h377v181q0 25 25 24h92q25 0 24 -24v-297zM692 1294q-20 -61 -104 -250l-217 -483h319v623q0 63 2 110z" />
<glyph unicode="&#xc7;" horiz-adv-x="987" d="M903 115q0 -33 -53 -64q-100 -59 -203 -74l-4 -92q80 -10 113 -35q47 -31 47 -102q0 -74 -59.5 -120t-155.5 -46q-127 0 -127 39q0 8 2 17l8 63q0 12 12 12q14 0 51 -9t58 -9q84 0 84 49t-109 49q-57 0 -55 27l2 26l12 127q-162 20 -252 119q-170 184 -170 625 q0 717 455 717q188 0 318 -105q16 -14 16 -37v-227q0 -25 -25 -25h-92q-25 0 -24 25v174q-100 57 -189 57q-147 0 -211.5 -131t-64.5 -428q0 -629 291 -628q86 0 184 57v176q0 25 24 25h93q25 0 24 -25v-227z" />
<glyph unicode="&#xc8;" horiz-adv-x="987" d="M662 1599q0 -4 -9 -18l-22 -39q-6 -10 -17 -10q-4 0 -20 6l-356 141q-20 8 -21 21q0 8 6 18l53 92q10 16 21 17q10 0 20 -8l326 -199q19 -11 19 -21zM920 29q0 -29 -29 -29h-787q-25 0 -24 25v84q0 25 24 24h129v1139h-129q-25 0 -24 24v84q0 25 24 25h773q29 0 28 -31 v-276q0 -25 -24 -25h-93q-25 0 -24 25v162h-363v-461h402q29 0 28 -29v-80q0 -29 -28 -28h-402v-517h377v181q0 25 25 24h92q25 0 25 -24v-297z" />
<glyph unicode="&#xc9;" horiz-adv-x="987" d="M811 1698q0 -10 -20 -19l-361 -143q-10 -4 -18 -4q-10 0 -19 16l-18 33q-8 10 -8 21q0 8 18 18l326 199q10 8 18 8q10 0 21 -17l53 -92q8 -10 8 -20zM920 29q0 -29 -29 -29h-787q-25 0 -24 25v84q0 25 24 24h129v1139h-129q-25 0 -24 24v84q0 25 24 25h773q29 0 28 -31 v-276q0 -25 -24 -25h-93q-25 0 -24 25v162h-363v-461h402q29 0 28 -29v-80q0 -29 -28 -28h-402v-517h377v181q0 25 25 24h92q25 0 25 -24v-297z" />
<glyph unicode="&#xca;" horiz-adv-x="987" d="M768 1595q0 -4 -8 -18l-25 -31q-12 -14 -20 -14t-21 6l-200 109l-201 -109q-12 -6 -21 -6q-8 0 -20 14l-25 31q-8 10 -8 20t14 21l222 151q25 16 39 17q12 0 36 -17l224 -151q14 -11 14 -23zM920 29q0 -29 -29 -29h-787q-25 0 -24 25v84q0 25 24 24h129v1139h-129 q-25 0 -24 24v84q0 25 24 25h773q29 0 28 -31v-276q0 -25 -24 -25h-93q-25 0 -24 25v162h-363v-461h402q29 0 28 -29v-80q0 -29 -28 -28h-402v-517h377v181q0 25 25 24h92q25 0 25 -24v-297z" />
<glyph unicode="&#xcb;" horiz-adv-x="987" d="M813 1661q0 -45 -32.5 -79t-80.5 -34q-47 0 -79.5 33t-32.5 80t33.5 80t80.5 33q45 0 78 -34t33 -79zM399 1663q0 -47 -32.5 -81t-79.5 -34t-81 34t-34 81t34 80t81 33t79.5 -33t32.5 -80zM920 29q0 -29 -29 -29h-787q-25 0 -24 25v84q0 25 24 24h129v1139h-129 q-25 0 -24 24v84q0 25 24 25h773q29 0 28 -31v-276q0 -25 -24 -25h-93q-25 0 -24 25v162h-363v-461h402q29 0 28 -29v-80q0 -29 -28 -28h-402v-517h377v181q0 25 25 24h92q25 0 25 -24v-297z" />
<glyph unicode="&#xcc;" horiz-adv-x="720" d="M502 1599q0 -4 -8 -18l-23 -39q-6 -10 -16 -10q-4 0 -21 6l-356 141q-20 8 -21 21q0 8 6 18l54 92q10 16 20 17q10 0 21 -8l325 -199q19 -11 19 -21zM655 29q0 -29 -28 -29h-531q-29 0 -28 29v75q0 29 28 29h180v1139h-180q-29 0 -28 28v76q0 29 28 29h531q29 0 28 -29 v-76q0 -29 -28 -28h-183v-1139h183q29 0 28 -29v-75z" />
<glyph unicode="&#xcd;" horiz-adv-x="720" d="M666 1698q0 -10 -21 -19l-360 -143q-10 -4 -19 -4q-10 0 -18 16l-19 33q-8 10 -8 21q0 8 19 18l325 199q10 8 19 8q10 0 20 -17l53 -92q9 -10 9 -20zM655 29q0 -29 -28 -29h-531q-29 0 -28 29v75q0 29 28 29h180v1139h-180q-29 0 -28 28v76q0 29 28 29h531q29 0 28 -29 v-76q0 -29 -28 -28h-183v-1139h183q29 0 28 -29v-75z" />
<glyph unicode="&#xce;" horiz-adv-x="720" d="M637 1595q0 -4 -8 -18l-25 -31q-12 -14 -20 -14t-21 6l-201 109l-200 -109q-12 -6 -21 -6q-8 0 -20 14l-25 31q-8 10 -8 20t14 21l222 151q25 16 38 17q12 0 37 -17l224 -151q14 -11 14 -23zM655 29q0 -29 -28 -29h-531q-29 0 -28 29v75q0 29 28 29h180v1139h-180 q-29 0 -28 28v76q0 29 28 29h531q29 0 28 -29v-76q0 -29 -28 -28h-183v-1139h183q29 0 28 -29v-75z" />
<glyph unicode="&#xcf;" horiz-adv-x="720" d="M653 1661q0 -45 -32.5 -79t-79.5 -34t-80 33t-33 80t34 80t81 33q45 0 77.5 -34t32.5 -79zM295 1663q0 -47 -33 -81t-80 -34t-80.5 34t-33.5 81t33.5 80t80.5 33t80 -33t33 -80zM655 29q0 -29 -28 -29h-531q-29 0 -28 29v75q0 29 28 29h180v1139h-180q-29 0 -28 28v76 q0 29 28 29h531q29 0 28 -29v-76q0 -29 -28 -28h-183v-1139h183q29 0 28 -29v-75z" />
<glyph unicode="&#xd0;" horiz-adv-x="1175" d="M1069 717q0 -379 -135 -548t-438 -169h-394q-23 0 -22 25v84q0 25 22 24h134v533h-127q-29 0 -29 28v76q0 29 29 29h127v473h-134q-23 0 -22 24v84q0 25 22 25h416q238 0 344 -78q207 -151 207 -610zM889 723q0 401 -162 496q-72 41 -211 41h-113v-461h246q29 0 29 -29 v-76q0 -29 -29 -28h-246v-521h127q188 0 277 136q82 125 82 442z" />
<glyph unicode="&#xd1;" horiz-adv-x="1175" d="M922 1726q0 -37 -56.5 -99t-138.5 -62q-47 0 -127 43q-72 39 -108 39q-55 0 -91 -62q-8 -16 -20 -16q-6 0 -12 4l-58 22q-16 6 -16 19q0 31 59 98q53 61 133 62q57 0 177 -66q31 -16 57 -16q63 0 96 61q8 16 19 16l14 -2l55 -24q17 -9 17 -17zM1163 1296q0 -25 -24 -24 h-129v-1243q0 -29 -29 -29h-111q-20 0 -30 20l-473 1014q-35 76 -60 178q20 -104 21 -186v-893h131q25 0 24 -24v-84q0 -25 -24 -25h-410q-25 0 -24 25v84q0 25 24 24h129v1139h-129q-25 0 -24 24v84q0 25 24 25h287q23 0 33 -21l452 -954q29 -61 53 -158q-14 86 -14 164 v836h-129q-25 0 -24 24v84q0 25 24 25h408q25 0 24 -25v-84z" />
<glyph unicode="&#xd2;" horiz-adv-x="1138" d="M694 1599q0 -4 -8 -18l-22 -39q-6 -10 -17 -10q-4 0 -20 6l-357 141q-20 8 -20 21q0 8 6 18l53 92q10 16 21 17q10 0 20 -8l326 -199q18 -11 18 -21zM1030 705q0 -733 -473 -734q-451 0 -451 723q0 739 480 740q444 0 444 -729zM848 690q0 336 -78 488q-61 119 -201 118 q-150 0 -211 -129q-70 -147 -69 -460q0 -317 80 -480q59 -119 198 -118q152 0 211 129q70 149 70 452z" />
<glyph unicode="&#xd3;" horiz-adv-x="1138" d="M887 1698q0 -10 -21 -19l-360 -143q-10 -4 -19 -4q-10 0 -18 16l-18 33q-8 10 -9 21q0 8 19 18l325 199q10 8 19 8q10 0 20 -17l54 -92q8 -10 8 -20zM1030 705q0 -733 -473 -734q-451 0 -451 723q0 739 480 740q444 0 444 -729zM848 690q0 336 -78 488q-61 119 -201 118 q-150 0 -211 -129q-70 -147 -69 -460q0 -317 80 -480q59 -119 198 -118q152 0 211 129q70 149 70 452z" />
<glyph unicode="&#xd4;" horiz-adv-x="1138" d="M844 1595q0 -4 -8 -18l-25 -31q-12 -14 -20 -14t-21 6l-201 109l-200 -109q-12 -6 -21 -6q-8 0 -20 14l-25 31q-8 10 -8 20t14 21l221 151q25 16 39 17q12 0 37 -17l223 -151q15 -11 15 -23zM1030 705q0 -733 -473 -734q-451 0 -451 723q0 739 480 740q444 0 444 -729z M848 690q0 336 -78 488q-61 119 -201 118q-150 0 -211 -129q-70 -147 -69 -460q0 -317 80 -480q59 -119 198 -118q152 0 211 129q70 149 70 452z" />
<glyph unicode="&#xd5;" horiz-adv-x="1138" d="M881 1726q0 -37 -56.5 -99t-138.5 -62q-47 0 -127 43q-72 39 -108 39q-55 0 -91 -62q-8 -16 -20 -16q-6 0 -12 4l-58 22q-16 6 -16 19q0 31 59 98q53 61 133 62q57 0 177 -66q31 -16 57 -16q63 0 96 61q8 16 19 16l14 -2l55 -24q17 -9 17 -17zM1030 705q0 -733 -473 -734 q-451 0 -451 723q0 739 480 740q444 0 444 -729zM848 690q0 336 -78 488q-61 119 -201 118q-150 0 -211 -129q-70 -147 -69 -460q0 -317 80 -480q59 -119 198 -118q152 0 211 129q70 149 70 452z" />
<glyph unicode="&#xd6;" horiz-adv-x="1138" d="M889 1661q0 -45 -33 -79t-80 -34t-79.5 33t-32.5 80t33.5 80t80.5 33q45 0 78 -34t33 -79zM475 1663q0 -47 -32.5 -81t-80.5 -34q-47 0 -80.5 34t-33.5 81t33.5 80t80.5 33t80 -33t33 -80zM1030 705q0 -733 -473 -734q-451 0 -451 723q0 739 480 740q444 0 444 -729z M848 690q0 336 -78 488q-61 119 -201 118q-150 0 -211 -129q-70 -147 -69 -460q0 -317 80 -480q59 -119 198 -118q152 0 211 129q70 149 70 452z" />
<glyph unicode="&#xd7;" d="M889 244q0 -6 -12 -19l-70 -69q-12 -12 -19 -13q-10 0 -20 13l-256 258l-256 -258q-10 -12 -18 -13q-10 0 -21 13l-70 69q-12 10 -12 19q0 8 12 20l259 256l-259 254q-12 12 -12 23q0 6 12 18l70 70q12 12 21 12q6 0 18 -12l256 -258l256 258q12 12 18 12q8 0 21 -12 l70 -70q12 -12 12 -20q0 -4 -12 -21l-259 -254l259 -256q12 -12 12 -20z" />
<glyph unicode="&#xd8;" horiz-adv-x="1138" d="M1030 705q0 -733 -471 -734q-158 0 -266 95l-68 -132q-10 -18 -18 -18t-19 6l-59 29q-20 10 -20 18q0 4 8 21l94 182q-104 195 -105 524q0 737 472 738q135 0 243 -76l70 135q10 18 18 18q6 0 19 -6l61 -30q18 -10 19 -17q0 -14 -7 -20l-92 -178q121 -188 121 -555z M745 1229q-66 68 -172 67q-158 0 -227.5 -140t-69.5 -460q0 -176 27 -358zM860 705q0 254 -37 401l-448 -905q66 -92 188 -92q158 0 227.5 138.5t69.5 457.5z" />
<glyph unicode="&#xd9;" horiz-adv-x="1251" d="M725 1599q0 -4 -8 -18l-23 -39q-6 -10 -16 -10q-4 0 -21 6l-356 141q-20 8 -20 21q0 8 6 18l53 92q10 16 20 17q10 0 21 -8l326 -199q18 -11 18 -21zM1217 1296q0 -25 -25 -24h-131v-895q0 -188 -103 -289q-121 -117 -344 -117q-422 0 -421 406v895h-130q-25 0 -24 24v84 q0 25 24 25h429q25 0 24 -25v-84q0 -25 -24 -24h-132v-889q0 -150 60.5 -212t202.5 -62q276 0 276 274v889h-129q-25 0 -25 24v84q0 25 25 25h422q25 0 25 -25v-84z" />
<glyph unicode="&#xda;" horiz-adv-x="1251" d="M973 1698q0 -10 -21 -19l-360 -143q-10 -4 -19 -4q-10 0 -18 16l-18 33q-8 10 -9 21q0 8 19 18l325 199q10 8 19 8q10 0 20 -17l54 -92q8 -10 8 -20zM1217 1296q0 -25 -25 -24h-131v-895q0 -188 -103 -289q-121 -117 -344 -117q-422 0 -421 406v895h-130q-25 0 -24 24v84 q0 25 24 25h429q25 0 24 -25v-84q0 -25 -24 -24h-132v-889q0 -150 60.5 -212t202.5 -62q276 0 276 274v889h-129q-25 0 -25 24v84q0 25 25 25h422q25 0 25 -25v-84z" />
<glyph unicode="&#xdb;" horiz-adv-x="1251" d="M901 1595q0 -4 -8 -18l-25 -31q-12 -14 -20 -14t-21 6l-200 109l-201 -109q-12 -6 -20 -6t-21 14l-25 31q-8 10 -8 20t15 21l221 151q25 16 39 17q12 0 37 -17l223 -151q14 -11 14 -23zM1217 1296q0 -25 -25 -24h-131v-895q0 -188 -103 -289q-121 -117 -344 -117 q-422 0 -421 406v895h-130q-25 0 -24 24v84q0 25 24 25h429q25 0 24 -25v-84q0 -25 -24 -24h-132v-889q0 -150 60.5 -212t202.5 -62q276 0 276 274v889h-129q-25 0 -25 24v84q0 25 25 25h422q25 0 25 -25v-84z" />
<glyph unicode="&#xdc;" horiz-adv-x="1251" d="M958 1661q0 -45 -32.5 -79t-79.5 -34t-80 33t-33 80t34 80t81 33q45 0 77.5 -34t32.5 -79zM545 1663q0 -47 -33 -81t-80 -34t-81 34t-34 81t34 80t81 33t80 -33t33 -80zM1217 1296q0 -25 -25 -24h-131v-895q0 -188 -103 -289q-121 -117 -344 -117q-422 0 -421 406v895 h-130q-25 0 -24 24v84q0 25 24 25h429q25 0 24 -25v-84q0 -25 -24 -24h-132v-889q0 -150 60.5 -212t202.5 -62q276 0 276 274v889h-129q-25 0 -25 24v84q0 25 25 25h422q25 0 25 -25v-84z" />
<glyph unicode="&#xdd;" horiz-adv-x="985" d="M897 1698q0 -10 -20 -19l-361 -143q-10 -4 -18 -4q-10 0 -19 16l-18 33q-8 10 -8 21q0 8 18 18l326 199q10 8 18 8q10 0 21 -17l53 -92q8 -10 8 -20zM1042 1296q0 -25 -24 -24h-86l-348 -676v-463h143q25 0 25 -24v-84q0 -25 -25 -25h-457q-25 0 -24 25v84q0 25 24 24 h146v459l-361 680h-78q-25 0 -24 24v84q0 25 24 25h394q25 0 24 -25v-84q0 -25 -24 -24h-119l197 -404q31 -63 55 -127q20 55 55 129l189 402h-123q-25 0 -25 24v84q0 25 25 25h393q25 0 24 -25v-84z" />
<glyph unicode="&#xde;" d="M995 793q0 -274 -207 -379q-90 -45 -237 -45h-150v-236h154q25 0 25 -24v-84q0 -25 -25 -25h-451q-25 0 -24 25v84q0 25 24 24h129v1139h-129q-25 0 -24 24v84q0 25 24 25h428q25 0 25 -25v-80q0 -25 -25 -24h-131v-111h179q184 0 262 -47q153 -94 153 -325zM823 788 q0 170 -116 220q-39 16 -146 16h-160v-508h136q135 0 196 47q90 69 90 225z" />
<glyph unicode="&#xdf;" horiz-adv-x="1251" d="M1122 307q0 -164 -96 -254q-80 -76 -235 -76q-86 0 -164 21.5t-78 44.5q0 8 2 14l24 86q4 14 15 15q6 0 18 -4q94 -45 195 -45q170 0 170 172q0 74 -37 118.5t-191 153.5q-100 72 -129 102q-55 59 -55 148q0 117 110.5 211t110.5 182q0 76 -52 120t-140 44 q-102 0 -162.5 -52.5t-60.5 -199.5v-1083q0 -25 -23 -25h-248q-25 0 -24 25v77q0 25 24 25h117v983q0 180 84 270q96 104 307 105q156 0 247 -71t91 -191q0 -98 -53 -174q-14 -20 -105 -107q-70 -66 -69 -115q0 -41 26.5 -67.5t188.5 -145.5q192 -143 192 -307z" />
<glyph unicode="&#xe0;" horiz-adv-x="948" d="M573 1188q0 -4 -10 -19l-24 -34q-4 -10 -15 -11q-8 0 -20 6l-334 175q-18 10 -18 20q0 6 8 18l59 87q12 16 21 16q6 0 20 -10l297 -228q16 -12 16 -20zM920 25q0 -25 -25 -25h-174q-47 0 -78 109q-131 -129 -295 -129q-123 0 -194.5 75.5t-71.5 204.5q0 348 539 356v68 q0 98 -42 140t-143 42q-104 0 -235 -59q-12 -4 -15 -4q-10 0 -14 10l-31 82l-2 16q0 29 110.5 62t211.5 33q313 0 313 -287v-387q0 -131 25 -205h96q25 0 25 -25v-77zM621 225v264q-381 -2 -381 -217q0 -72 41 -117.5t104 -45.5q101 -1 236 116z" />
<glyph unicode="&#xe1;" horiz-adv-x="948" d="M770 1321q0 -6 -18 -16l-336 -175q-16 -8 -21 -8q-8 0 -18 17l-21 30q-8 12 -8 21q0 6 17 18l297 228q14 10 20 10q8 0 20 -16l60 -87q8 -12 8 -22zM920 25q0 -25 -25 -25h-174q-47 0 -78 109q-131 -129 -295 -129q-123 0 -194.5 75.5t-71.5 204.5q0 348 539 356v68 q0 98 -42 140t-143 42q-104 0 -235 -59q-12 -4 -15 -4q-10 0 -14 10l-31 82l-2 16q0 29 110.5 62t211.5 33q313 0 313 -287v-387q0 -131 25 -205h96q25 0 25 -25v-77zM621 225v264q-381 -2 -381 -217q0 -72 41 -117.5t104 -45.5q101 -1 236 116z" />
<glyph unicode="&#xe2;" horiz-adv-x="948" d="M713 1219q0 -6 -11 -21l-26 -37q-8 -10 -17 -10q-6 0 -18 8l-188 121l-189 -121q-12 -8 -18 -8t-21 14l-22 33q-10 14 -10 21q0 10 14 20l227 178q10 10 19 10q8 0 18 -10l227 -178q15 -14 15 -20zM920 25q0 -25 -25 -25h-174q-47 0 -78 109q-131 -129 -295 -129 q-123 0 -194.5 75.5t-71.5 204.5q0 348 539 356v68q0 98 -42 140t-143 42q-104 0 -235 -59q-12 -4 -15 -4q-10 0 -14 10l-31 82l-2 16q0 29 110.5 62t211.5 33q313 0 313 -287v-387q0 -131 25 -205h96q25 0 25 -25v-77zM621 225v264q-381 -2 -381 -217q0 -72 41 -117.5 t104 -45.5q101 -1 236 116z" />
<glyph unicode="&#xe3;" horiz-adv-x="948" d="M758 1348q0 -29 -52.5 -95.5t-138.5 -66.5q-47 0 -123 43q-68 39 -104 39q-53 0 -88 -62q-8 -16 -19 -16l-12 2l-55 25q-16 8 -16 18q0 29 57 98q51 61 129 62q51 0 123.5 -41t103.5 -41q63 0 92 61q8 16 19 17l14 -2l55 -25q15 -6 15 -16zM920 25q0 -25 -25 -25h-174 q-47 0 -78 109q-131 -129 -295 -129q-123 0 -194.5 75.5t-71.5 204.5q0 348 539 356v68q0 98 -42 140t-143 42q-104 0 -235 -59q-12 -4 -15 -4q-10 0 -14 10l-31 82l-2 16q0 29 110.5 62t211.5 33q313 0 313 -287v-387q0 -131 25 -205h96q25 0 25 -25v-77zM621 225v264 q-381 -2 -381 -217q0 -72 41 -117.5t104 -45.5q101 -1 236 116z" />
<glyph unicode="&#xe4;" horiz-adv-x="948" d="M756 1290q0 -45 -33 -76.5t-78 -31.5t-76.5 32.5t-31.5 77.5t32.5 77t77.5 32t77 -33t32 -78zM352 1290q0 -45 -31.5 -76.5t-76.5 -31.5t-78 32.5t-33 77.5t33 77t78 32t76.5 -33t31.5 -78zM920 25q0 -25 -25 -25h-174q-47 0 -78 109q-131 -129 -295 -129 q-123 0 -194.5 75.5t-71.5 204.5q0 348 539 356v68q0 98 -42 140t-143 42q-104 0 -235 -59q-12 -4 -15 -4q-10 0 -14 10l-31 82l-2 16q0 29 110.5 62t211.5 33q313 0 313 -287v-387q0 -131 25 -205h96q25 0 25 -25v-77zM621 225v264q-381 -2 -381 -217q0 -72 41 -117.5 t104 -45.5q101 -1 236 116z" />
<glyph unicode="&#xe5;" horiz-adv-x="948" d="M643 1282q0 -76 -53 -129t-129 -53t-129 54t-53 130t54 128t132 52q72 0 125 -53t53 -129zM920 25q0 -25 -25 -25h-174q-47 0 -78 109q-131 -129 -295 -129q-123 0 -194.5 75.5t-71.5 204.5q0 348 539 356v68q0 98 -42 140t-143 42q-104 0 -235 -59q-12 -4 -15 -4 q-10 0 -14 10l-31 82l-2 16q0 29 110.5 62t211.5 33q313 0 313 -287v-387q0 -131 25 -205h96q25 0 25 -25v-77zM545 1282q0 37 -25.5 62.5t-60.5 25.5q-33 0 -57.5 -26.5t-24.5 -61.5q0 -37 24.5 -62.5t59.5 -25.5t59.5 25.5t24.5 62.5zM621 225v264q-381 -2 -381 -217 q0 -72 41 -117.5t104 -45.5q101 -1 236 116z" />
<glyph unicode="&#xe6;" horiz-adv-x="1441" d="M1374 508q0 -37 -26 -37h-586q2 -170 74.5 -267.5t193.5 -97.5q109 0 236 76q14 8 22 8q12 0 17 -10l36 -80q4 -12 5 -16q0 -18 -76 -55q-119 -57 -250 -58q-193 0 -320 162q-168 -154 -356 -153q-129 0 -202.5 74.5t-73.5 205.5q0 334 550 342v82q0 96 -45 139t-147 43 q-88 0 -238 -59q-10 -4 -16 -4q-10 0 -14 10l-29 80q-4 12 -4 18q0 29 110.5 62t206.5 33q178 0 277 -127q113 133 287 133q178 0 273 -130t95 -374zM1206 598q-27 289 -217 289q-119 0 -178 -101q-33 -57 -45 -188h440zM618 225v250q-213 -6 -303 -53t-90 -152 q0 -72 42 -116.5t112 -44.5q120 -1 239 116z" />
<glyph unicode="&#xe7;" horiz-adv-x="872" d="M811 78q0 -18 -83 -52t-161 -49l-8 -88q86 -10 122 -39.5t36 -93.5q0 -72 -58.5 -117t-152.5 -45q-123 0 -123 39q0 2 2 11v4l8 63q0 10 13 10q14 0 50 -8t56 -8q82 0 82 47t-105 47q-57 0 -55 31q0 14 2 20l13 123q-346 47 -347 498q0 250 112 395.5t304 145.5 q143 0 264 -78q23 -14 23 -39v-176q0 -25 -25 -25h-86q-25 0 -24 25v117q-88 41 -150 41q-113 0 -174 -80q-72 -92 -72 -303q0 -383 234 -383q102 0 237 77l15 5q10 0 12 -13l35 -86q4 -10 4 -16z" />
<glyph unicode="&#xe8;" horiz-adv-x="948" d="M643 1188q0 -4 -10 -19l-25 -34q-4 -10 -14 -11q-8 0 -21 6l-333 175q-18 10 -19 20q0 6 8 18l60 87q12 16 20 16q6 0 21 -10l297 -228q16 -12 16 -20zM883 494q0 -37 -23 -37h-588q16 -346 271 -346q109 0 237 73q10 6 21 6q8 0 14 -10l37 -80q4 -8 4 -14q0 -23 -74 -57 q-123 -57 -252 -58q-195 0 -310.5 140.5t-115.5 377.5q0 238 111 380.5t295 142.5q258 0 342 -246q31 -90 31 -272zM717 584q-6 303 -217 303q-209 0 -228 -303h445z" />
<glyph unicode="&#xe9;" horiz-adv-x="948" d="M811 1321q0 -6 -18 -16l-336 -175q-16 -8 -21 -8q-8 0 -18 17l-21 30q-8 12 -8 21q0 6 17 18l296 228q14 10 21 10q8 0 20 -16l60 -87q8 -12 8 -22zM883 494q0 -37 -23 -37h-588q16 -346 271 -346q109 0 237 73q10 6 21 6q8 0 14 -10l37 -80q4 -8 4 -14q0 -23 -74 -57 q-123 -57 -252 -58q-195 0 -310.5 140.5t-115.5 377.5q0 238 111 380.5t295 142.5q258 0 342 -246q31 -90 31 -272zM717 584q-6 303 -217 303q-209 0 -228 -303h445z" />
<glyph unicode="&#xea;" horiz-adv-x="948" d="M762 1219q0 -6 -10 -21l-27 -37q-8 -10 -16 -10q-6 0 -19 8l-188 121l-189 -121q-12 -8 -18 -8t-21 14l-22 33q-10 14 -10 21q0 10 14 20l227 178q10 10 19 10q8 0 18 -10l228 -178q14 -14 14 -20zM883 494q0 -37 -23 -37h-588q16 -346 271 -346q109 0 237 73q10 6 21 6 q8 0 14 -10l37 -80q4 -8 4 -14q0 -23 -74 -57q-123 -57 -252 -58q-195 0 -310.5 140.5t-115.5 377.5q0 238 111 380.5t295 142.5q258 0 342 -246q31 -90 31 -272zM717 584q-6 303 -217 303q-209 0 -228 -303h445z" />
<glyph unicode="&#xeb;" horiz-adv-x="948" d="M813 1290q0 -45 -32.5 -76.5t-78.5 -31.5q-45 0 -76.5 32.5t-31.5 77.5t32.5 77t78.5 32q45 0 76.5 -33t31.5 -78zM410 1290q0 -45 -32 -76.5t-77 -31.5t-78 32.5t-33 77.5t33 77t78 32t77 -33t32 -78zM883 494q0 -37 -23 -37h-588q16 -346 271 -346q109 0 237 73 q10 6 21 6q8 0 14 -10l37 -80q4 -8 4 -14q0 -23 -74 -57q-123 -57 -252 -58q-195 0 -310.5 140.5t-115.5 377.5q0 238 111 380.5t295 142.5q258 0 342 -246q31 -90 31 -272zM717 584q-6 303 -217 303q-209 0 -228 -303h445z" />
<glyph unicode="&#xec;" horiz-adv-x="569" d="M397 1188q0 -4 -10 -19l-25 -34q-4 -10 -14 -11q-8 0 -20 6l-334 175q-18 10 -19 20q0 6 9 18l59 87q12 16 20 16q6 0 21 -10l297 -228q16 -12 16 -20zM557 25q0 -25 -25 -25h-450q-25 0 -25 25v77q0 25 25 25h147v729h-163q-23 0 -23 23v79q0 25 23 25h294q23 0 23 -25 v-831h149q25 0 25 -25v-77z" />
<glyph unicode="&#xed;" horiz-adv-x="569" d="M602 1321q0 -6 -18 -16l-336 -175q-16 -8 -21 -8q-8 0 -18 17l-21 30q-8 12 -8 21q0 6 17 18l297 228q14 10 20 10q8 0 21 -16l59 -87q8 -12 8 -22zM557 25q0 -25 -25 -25h-450q-25 0 -25 25v77q0 25 25 25h147v729h-163q-23 0 -23 23v79q0 25 23 25h294q23 0 23 -25 v-831h149q25 0 25 -25v-77z" />
<glyph unicode="&#xee;" horiz-adv-x="569" d="M545 1219q0 -6 -10 -21l-27 -37q-8 -10 -16 -10q-6 0 -19 8l-188 121l-189 -121q-12 -8 -18 -8t-21 14l-22 33q-10 14 -10 21q0 10 14 20l227 178q10 10 19 10q8 0 18 -10l227 -178q15 -14 15 -20zM557 25q0 -25 -25 -25h-450q-25 0 -25 25v77q0 25 25 25h147v729h-163 q-23 0 -23 23v79q0 25 23 25h294q23 0 23 -25v-831h149q25 0 25 -25v-77z" />
<glyph unicode="&#xef;" horiz-adv-x="569" d="M547 1290q0 -45 -33 -76.5t-78 -31.5t-76.5 32.5t-31.5 77.5t32.5 77t77.5 32t77 -33t32 -78zM256 1290q0 -45 -31.5 -76.5t-77.5 -31.5q-45 0 -77.5 32.5t-32.5 77.5t32.5 77t77.5 32t77 -33t32 -78zM557 25q0 -25 -25 -25h-450q-25 0 -25 25v77q0 25 25 25h147v729 h-163q-23 0 -23 23v79q0 25 23 25h294q23 0 23 -25v-831h149q25 0 25 -25v-77z" />
<glyph unicode="&#xf0;" d="M920 549q0 -272 -112 -425t-310 -153q-186 0 -290 136.5t-104 379.5q0 240 109 382.5t291 142.5q111 0 198 -76q-70 178 -139 295l-174 -88l-16 -4q-8 0 -17 14l-22 47q-6 10 -6 17q0 8 16 16l172 84l-61 104q-18 25 -19 33q0 10 25 14l80 15q4 2 10 2q25 0 88 -103 l162 80q6 4 16 4q6 0 14 -14l23 -45q4 -8 4 -16q0 -10 -14 -17l-154 -78q230 -380 230 -747zM754 500q0 383 -244 383q-240 0 -240 -375q0 -211 64 -318q53 -90 180 -90q121 0 174 86q66 107 66 314z" />
<glyph unicode="&#xf1;" horiz-adv-x="1099" d="M864 1348q0 -29 -52 -95.5t-138 -66.5q-47 0 -123 43q-68 39 -105 39q-53 0 -88 -62q-8 -16 -18 -16l-12 2l-56 25q-16 8 -16 18q0 29 57 98q51 61 129 62q51 0 124 -41t104 -41q63 0 92 61q8 16 18 17l15 -2l55 -25q14 -6 14 -16zM1059 25q0 -25 -25 -25h-246 q-23 0 -22 25v684q0 170 -137 170q-125 0 -269 -129v-623h115q25 0 25 -25v-77q0 -25 -25 -25h-385q-25 0 -24 25v77q0 25 24 25h115v600q0 78 -12 129h-117q-25 0 -25 25v77q0 25 25 25h207q39 0 63 -111q172 139 330 140q154 0 209 -99q35 -61 35 -206v-580h114 q25 0 25 -25v-77z" />
<glyph unicode="&#xf2;" d="M625 1188q0 -4 -11 -19l-24 -34q-4 -10 -15 -11q-8 0 -20 6l-334 175q-18 10 -18 20q0 6 8 18l59 87q12 16 21 16q6 0 20 -10l297 -228q17 -12 17 -20zM920 498q0 -248 -111 -387.5t-309 -139.5q-186 0 -291 136.5t-105 379.5q0 248 111 386.5t309 138.5q186 0 291 -136 t105 -378zM754 500q0 383 -244 383q-240 0 -240 -375q0 -211 64 -318q53 -90 180 -90q121 0 174 86q66 107 66 314z" />
<glyph unicode="&#xf3;" d="M821 1321q0 -6 -18 -16l-336 -175q-16 -8 -21 -8q-8 0 -18 17l-20 30q-8 12 -9 21q0 6 17 18l297 228q14 10 20 10q8 0 21 -16l59 -87q8 -12 8 -22zM920 498q0 -248 -111 -387.5t-309 -139.5q-186 0 -291 136.5t-105 379.5q0 248 111 386.5t309 138.5q186 0 291 -136 t105 -378zM754 500q0 383 -244 383q-240 0 -240 -375q0 -211 64 -318q53 -90 180 -90q121 0 174 86q66 107 66 314z" />
<glyph unicode="&#xf4;" d="M772 1219q0 -6 -10 -21l-27 -37q-8 -10 -16 -10q-6 0 -19 8l-188 121l-188 -121q-12 -8 -19 -8q-6 0 -20 14l-23 33q-10 14 -10 21q0 10 14 20l228 178q10 10 18 10t18 -10l228 -178q14 -14 14 -20zM920 498q0 -248 -111 -387.5t-309 -139.5q-186 0 -291 136.5 t-105 379.5q0 248 111 386.5t309 138.5q186 0 291 -136t105 -378zM754 500q0 383 -244 383q-240 0 -240 -375q0 -211 64 -318q53 -90 180 -90q121 0 174 86q66 107 66 314z" />
<glyph unicode="&#xf5;" d="M817 1348q0 -29 -52 -95.5t-138 -66.5q-47 0 -123 43q-68 39 -105 39q-53 0 -88 -62q-8 -16 -18 -16l-12 2l-56 25q-16 8 -16 18q0 29 57 98q51 61 129 62q51 0 124 -41t104 -41q63 0 92 61q8 16 18 17l15 -2l55 -25q14 -6 14 -16zM920 498q0 -248 -111 -387.5 t-309 -139.5q-186 0 -291 136.5t-105 379.5q0 248 111 386.5t309 138.5q186 0 291 -136t105 -378zM754 500q0 383 -244 383q-240 0 -240 -375q0 -211 64 -318q53 -90 180 -90q121 0 174 86q66 107 66 314z" />
<glyph unicode="&#xf6;" d="M823 1290q0 -45 -32.5 -76.5t-77.5 -31.5t-77 32.5t-32 77.5t33 77t78 32t76.5 -33t31.5 -78zM420 1290q0 -45 -32 -76.5t-77 -31.5t-77.5 32.5t-32.5 77.5t32.5 77t77.5 32t77 -33t32 -78zM920 498q0 -248 -111 -387.5t-309 -139.5q-186 0 -291 136.5t-105 379.5 q0 248 111 386.5t309 138.5q186 0 291 -136t105 -378zM754 500q0 383 -244 383q-240 0 -240 -375q0 -211 64 -318q53 -90 180 -90q121 0 174 86q66 107 66 314z" />
<glyph unicode="&#xf7;" d="M627 877q0 -49 -34 -83t-81 -34q-49 0 -83 33.5t-34 83.5q0 47 34 80.5t83 33.5q47 0 81 -33.5t34 -80.5zM979 471q0 -29 -29 -29h-876q-29 0 -29 29v96q0 29 29 29h876q29 0 29 -29v-96zM627 162q0 -47 -34 -81t-81 -34q-49 0 -83 34t-34 81q0 49 34 83t83 34 q47 0 81 -34t34 -83z" />
<glyph unicode="&#xf8;" d="M920 498q0 -248 -111 -387.5t-309 -139.5q-106 0 -191 45l-61 -114q-6 -14 -15 -15q-6 0 -16 7l-65 32q-14 10 -15 17q0 4 6 16l74 135q-113 139 -113 393q0 248 110 386.5t306 138.5q104 0 189 -43l57 104q6 14 14 14q4 0 17 -4l63 -34q16 -8 17 -17q0 -4 -7 -14 l-67 -125q117 -135 117 -395zM768 512q0 147 -43 264l-334 -641q55 -35 125 -35q127 0 184 86q68 101 68 326zM633 850q-53 33 -121 33q-254 0 -254 -385q0 -160 41 -289z" />
<glyph unicode="&#xf9;" horiz-adv-x="1099" d="M662 1188q0 -4 -11 -19l-24 -34q-4 -10 -15 -11q-8 0 -20 6l-334 175q-18 10 -18 20q0 6 8 18l59 87q12 16 21 16q6 0 20 -10l297 -228q17 -12 17 -20zM1049 25q0 -25 -25 -25h-178q-43 0 -74 96q-154 -125 -303 -125q-283 0 -283 275v610h-114q-25 0 -25 25v77 q0 25 25 25h243q25 0 25 -25v-610q0 -135 31.5 -186t115.5 -51q139 0 258 106v639h-124q-25 0 -25 25v77q0 25 25 25h253q25 0 25 -25v-686q0 -84 19 -145h106q25 0 25 -25v-77z" />
<glyph unicode="&#xfa;" horiz-adv-x="1099" d="M844 1321q0 -6 -19 -16l-336 -175q-16 -8 -20 -8q-8 0 -18 17l-21 30q-8 12 -8 21q0 6 16 18l297 228q14 10 21 10q8 0 20 -16l60 -87q8 -12 8 -22zM1049 25q0 -25 -25 -25h-178q-43 0 -74 96q-154 -125 -303 -125q-283 0 -283 275v610h-114q-25 0 -25 25v77q0 25 25 25 h243q25 0 25 -25v-610q0 -135 31.5 -186t115.5 -51q139 0 258 106v639h-124q-25 0 -25 25v77q0 25 25 25h253q25 0 25 -25v-686q0 -84 19 -145h106q25 0 25 -25v-77z" />
<glyph unicode="&#xfb;" horiz-adv-x="1099" d="M809 1219q0 -6 -10 -21l-27 -37q-8 -10 -16 -10q-6 0 -19 8l-188 121l-189 -121q-12 -8 -18 -8t-20 14l-23 33q-10 14 -10 21q0 10 14 20l227 178q10 10 19 10q8 0 18 -10l228 -178q14 -14 14 -20zM1049 25q0 -25 -25 -25h-178q-43 0 -74 96q-154 -125 -303 -125 q-283 0 -283 275v610h-114q-25 0 -25 25v77q0 25 25 25h243q25 0 25 -25v-610q0 -135 31.5 -186t115.5 -51q139 0 258 106v639h-124q-25 0 -25 25v77q0 25 25 25h253q25 0 25 -25v-686q0 -84 19 -145h106q25 0 25 -25v-77z" />
<glyph unicode="&#xfc;" horiz-adv-x="1099" d="M831 1290q0 -45 -32.5 -76.5t-77.5 -31.5t-77 32.5t-32 77.5t33 77t78 32t76.5 -33t31.5 -78zM428 1290q0 -45 -31.5 -76.5t-77.5 -31.5q-45 0 -77.5 32.5t-32.5 77.5t32.5 77t77.5 32t77 -33t32 -78zM1049 25q0 -25 -25 -25h-178q-43 0 -74 96q-154 -125 -303 -125 q-283 0 -283 275v610h-114q-25 0 -25 25v77q0 25 25 25h243q25 0 25 -25v-610q0 -135 31.5 -186t115.5 -51q139 0 258 106v639h-124q-25 0 -25 25v77q0 25 25 25h253q25 0 25 -25v-686q0 -84 19 -145h106q25 0 25 -25v-77z" />
<glyph unicode="&#xfd;" horiz-adv-x="909" d="M834 1321q0 -6 -19 -16l-336 -175q-16 -8 -20 -8q-8 0 -19 17l-20 30q-8 12 -8 21q0 6 16 18l297 228q14 10 20 10q8 0 21 -16l59 -87q9 -12 9 -22zM956 881q0 -25 -24 -25h-76l-209 -729q-74 -256 -137 -391q-80 -168 -246 -168q-76 0 -168 37t-92 65q0 6 4 13l41 81 q4 10 14 11q6 0 15 -6q106 -72 182 -72q102 0 158 174l41 129h-74q-18 0 -25 18l-297 838h-81q-25 0 -25 25v77q0 25 25 25h374q25 0 25 -25v-69q0 -25 -25 -25h-131l226 -657q16 -49 41 -148l32 144l172 661h-121q-25 0 -24 25v69q0 25 24 25h357q25 0 24 -25v-77z" />
<glyph unicode="&#xfe;" d="M920 512q0 -252 -91.5 -396.5t-248.5 -144.5q-117 0 -242 90v-348h129q25 0 25 -24v-78q0 -25 -25 -25h-401q-25 0 -25 25v78q0 25 25 24h118v1628h-125q-25 0 -24 25v78q0 25 24 24h258q20 0 21 -22v-533q135 98 266 99q178 0 247 -139.5t69 -360.5zM754 508 q0 178 -31 262q-39 106 -148 107q-92 0 -237 -103v-577q129 -86 223 -86q104 0 148.5 91t44.5 306z" />
<glyph unicode="&#xff;" horiz-adv-x="909" d="M780 1290q0 -45 -32.5 -76.5t-77.5 -31.5t-77 32.5t-32 77.5t33 77t78 32t76.5 -33t31.5 -78zM377 1290q0 -45 -32 -76.5t-77 -31.5t-77.5 32.5t-32.5 77.5t32.5 77t77.5 32t77 -33t32 -78zM956 881q0 -25 -24 -25h-76l-209 -729q-74 -256 -137 -391q-80 -168 -246 -168 q-76 0 -168 37t-92 65q0 6 4 13l41 81q4 10 14 11q6 0 15 -6q106 -72 182 -72q102 0 158 174l41 129h-74q-18 0 -25 18l-297 838h-81q-25 0 -25 25v77q0 25 25 25h374q25 0 25 -25v-69q0 -25 -25 -25h-131l226 -657q16 -49 41 -148l32 144l172 661h-121q-25 0 -24 25v69 q0 25 24 25h357q25 0 24 -25v-77z" />
<glyph unicode="&#x152;" horiz-adv-x="1554" d="M1489 29q0 -29 -29 -29h-626q-29 0 -29 29v57q-113 -115 -262 -115q-184 0 -295 150q-141 193 -142 575q0 422 154 602q115 135 299 136q150 0 246 -97v39q0 29 29 29h608q33 0 33 -29v-278q0 -25 -25 -25h-92q-25 0 -25 25v162h-360v-461h399q29 0 29 -29v-80 q0 -29 -29 -28h-399v-517h375v181q0 25 24 24h92q25 0 25 -24v-297zM805 231v936q-111 129 -240 129q-123 0 -182 -100q-94 -160 -94 -494q0 -594 268 -593q131 -1 248 122z" />
<glyph unicode="&#x153;" horiz-adv-x="1593" d="M1528 498q0 -41 -23 -41h-592q14 -158 62 -232q78 -119 209 -119q92 0 243 80q12 4 17 4q10 0 16 -10l35 -78q6 -10 6 -18q0 -39 -147 -78q-125 -35 -183 -35q-242 0 -333 187q-102 -186 -334 -187q-190 0 -295 135.5t-105 380.5q0 244 111 384.5t303 140.5 q199 0 322 -183q119 182 317 183q217 0 311 -187q60 -116 60 -327zM1362 584q-20 303 -219 303q-207 0 -225 -303h444zM758 498q0 385 -250 385q-238 0 -238 -375q0 -211 66 -320q53 -90 180 -90q123 0 176 86q66 107 66 314z" />
<glyph unicode="&#x178;" horiz-adv-x="985" d="M813 1661q0 -45 -32.5 -79t-80.5 -34q-47 0 -79.5 33t-32.5 80t33.5 80t80.5 33q45 0 78 -34t33 -79zM399 1663q0 -47 -32.5 -81t-79.5 -34t-81 34t-34 81t34 80t81 33t79.5 -33t32.5 -80zM1042 1296q0 -25 -24 -24h-86l-348 -676v-463h143q25 0 25 -24v-84 q0 -25 -25 -25h-457q-25 0 -24 25v84q0 25 24 24h146v459l-361 680h-78q-25 0 -24 24v84q0 25 24 25h394q25 0 24 -25v-84q0 -25 -24 -24h-119l197 -404q31 -63 55 -127q20 55 55 129l189 402h-123q-25 0 -25 24v84q0 25 25 25h393q25 0 24 -25v-84z" />
<glyph unicode="&#x2c6;" d="M772 1219q0 -6 -10 -21l-27 -37q-8 -10 -16 -10q-6 0 -19 8l-188 121l-188 -121q-12 -8 -19 -8q-6 0 -20 14l-23 33q-10 14 -10 21q0 10 14 20l228 178q10 10 18 10t18 -10l228 -178q14 -14 14 -20z" />
<glyph unicode="&#x2dc;" d="M815 1348q0 -29 -52 -95.5t-138 -66.5q-47 0 -123 43q-68 39 -105 39q-53 0 -88 -62q-8 -16 -18 -16l-12 2l-56 25q-16 8 -16 18q0 29 57 98q51 61 129 62q51 0 124 -41t104 -41q63 0 92 61q8 16 18 17l14 -2l56 -25q14 -6 14 -16z" />
<glyph unicode="&#x2000;" horiz-adv-x="935" />
<glyph unicode="&#x2001;" horiz-adv-x="1873" />
<glyph unicode="&#x2002;" horiz-adv-x="935" />
<glyph unicode="&#x2003;" horiz-adv-x="1873" />
<glyph unicode="&#x2004;" horiz-adv-x="624" />
<glyph unicode="&#x2005;" horiz-adv-x="466" />
<glyph unicode="&#x2006;" horiz-adv-x="311" />
<glyph unicode="&#x2007;" horiz-adv-x="311" />
<glyph unicode="&#x2008;" horiz-adv-x="233" />
<glyph unicode="&#x2009;" horiz-adv-x="374" />
<glyph unicode="&#x200a;" horiz-adv-x="102" />
<glyph unicode="&#x2010;" horiz-adv-x="720" d="M645 475q0 -29 -29 -29h-512q-29 0 -28 29v96q0 29 28 29h512q29 0 29 -29v-96z" />
<glyph unicode="&#x2011;" horiz-adv-x="720" d="M645 475q0 -29 -29 -29h-512q-29 0 -28 29v96q0 29 28 29h512q29 0 29 -29v-96z" />
<glyph unicode="&#x2012;" horiz-adv-x="720" d="M645 475q0 -29 -29 -29h-512q-29 0 -28 29v96q0 29 28 29h512q29 0 29 -29v-96z" />
<glyph unicode="&#x2013;" d="M946 483q0 -29 -28 -28h-809q-29 0 -29 28v80q0 29 29 29h809q29 0 28 -29v-80z" />
<glyph unicode="&#x2014;" horiz-adv-x="1593" d="M1518 485q0 -29 -29 -28h-1385q-29 0 -28 28v76q0 29 28 29h1385q29 0 29 -29v-76z" />
<glyph unicode="&#x2018;" horiz-adv-x="493" d="M428 1409q0 -2 -2 -8l-2 -8l-121 -410q-6 -23 -31 -22h-163q-29 0 -29 14q0 6 8 20l236 435q10 18 18 18q6 0 18 -4l46 -17q22 -8 22 -18z" />
<glyph unicode="&#x2019;" horiz-adv-x="493" d="M416 1411q0 -4 -8 -18l-236 -435q-10 -18 -20 -18q-6 0 -17 4l-45 17q-23 6 -22 18q0 4 4 16l118 410q6 23 31 22h166q29 0 29 -16z" />
<glyph unicode="&#x201a;" horiz-adv-x="454" d="M401 219q0 -6 -8 -20l-235 -435q-10 -18 -21 -18q-6 0 -16 4l-45 17q-23 8 -23 18q0 2 4 16l119 410q6 23 31 22h166q28 0 28 -14z" />
<glyph unicode="&#x201c;" horiz-adv-x="796" d="M741 1411q0 -2 -4 -18l-119 -410q-6 -23 -30 -22h-166q-27 0 -27 16q0 4 6 18l238 435q8 18 18 18q6 0 17 -4l45 -17q22 -6 22 -16zM401 1409q0 -2 -2 -8l-2 -8l-121 -410q-6 -23 -30 -22h-164q-29 0 -29 14q0 6 8 20l236 435q10 18 18 18q6 0 19 -4l45 -17q22 -8 22 -18 z" />
<glyph unicode="&#x201d;" horiz-adv-x="796" d="M741 1413q0 -2 -6 -20l-237 -435q-8 -18 -19 -18q-4 0 -16 4l-47 17q-20 6 -21 18q0 4 4 16l119 410q6 23 31 22h166q26 0 26 -14zM401 1411q0 -4 -8 -18l-235 -435q-10 -18 -21 -18q-6 0 -16 4l-45 17q-23 6 -23 18q0 4 4 16l119 410q6 23 31 22h166q28 0 28 -16z" />
<glyph unicode="&#x201e;" horiz-adv-x="796" d="M741 219q0 -2 -6 -20l-237 -435q-10 -18 -19 -18q-4 0 -16 4l-47 17q-20 6 -21 18q2 10 4 16l119 410q6 23 31 22h166q26 0 26 -14zM401 219q0 -6 -8 -20l-235 -435q-10 -18 -21 -18q-6 0 -16 4l-45 17q-23 8 -23 18q0 2 4 16l119 410q6 23 31 22h166q28 0 28 -14z" />
<glyph unicode="&#x2022;" horiz-adv-x="1404" d="M1038 713q0 -119 -85 -205t-205 -86q-121 0 -207 85t-86 206q0 123 85 208t210 85q119 0 203.5 -86t84.5 -207z" />
<glyph unicode="&#x2026;" horiz-adv-x="1820" d="M1663 117q0 -59 -42 -102.5t-101 -43.5q-61 0 -103.5 43t-42.5 103q0 59 43 101t105 42q57 0 99 -43t42 -100zM1055 117q0 -59 -42 -102.5t-102 -43.5q-61 0 -103 43t-42 103q0 59 43 101t104 42q57 0 99.5 -43t42.5 -100zM449 117q0 -59 -42 -102.5t-102 -43.5 q-61 0 -103 42t-42 104q0 59 43 101t104 42q57 0 99.5 -43t42.5 -100z" />
<glyph unicode="&#x202f;" horiz-adv-x="374" />
<glyph unicode="&#x2039;" horiz-adv-x="606" d="M512 80q0 -8 -18 -19l-58 -30q-12 -6 -18 -6t-19 14l-344 432q-8 10 -8 21q0 8 8 18l344 432q8 14 21 14q8 0 16 -6l58 -30q18 -10 18 -21q0 -6 -8 -18l-264 -389l264 -392q8 -16 8 -20z" />
<glyph unicode="&#x203a;" horiz-adv-x="606" d="M559 489q0 -10 -8 -18l-342 -432q-12 -14 -23 -14q-4 0 -16 6l-57 30q-18 10 -19 19q0 8 10 20l263 389l-263 392q-10 14 -10 18q0 10 19 21l57 30q12 6 18 6t19 -14l344 -432q8 -9 8 -21z" />
<glyph unicode="&#x205f;" horiz-adv-x="466" />
<glyph unicode="&#x2122;" horiz-adv-x="1517" d="M1411 569q0 -25 -25 -24h-249q-25 0 -25 24v47q0 25 25 25h73l-16 492l-141 -388q-6 -18 -29 -18h-35q-23 0 -28 18l-138 388l-14 -492h74q25 0 24 -25v-47q0 -25 -24 -24h-248q-27 0 -27 24v47q0 25 27 25h57l37 610h-74q-25 0 -24 23v47q0 25 24 25h176q23 0 29 -19 l141 -391q2 -6 9 -23l2 9l4 14l143 391q10 18 29 19h178q25 0 25 -25v-47q0 -23 -25 -23h-72l37 -610h55q25 0 25 -25v-47zM567 1126q0 -25 -24 -24h-56q-25 0 -24 24v119h-105v-604h74q25 0 25 -25v-47q0 -25 -25 -24h-270q-25 0 -25 24v47q0 25 25 25h76v604h-107v-119 q0 -25 -25 -24h-55q-25 0 -24 24v193q0 27 26 27h488q27 0 26 -27v-193z" />
<glyph unicode="&#xe000;" horiz-adv-x="985" d="M0 985h985v-985h-985v985z" />
<glyph unicode="&#xfb01;" horiz-adv-x="1175" d="M1026 1341q0 -51 -36 -86.5t-87 -35.5t-88 36.5t-37 87.5t37 87t90 36q49 0 85 -37t36 -88zM1163 25q0 -25 -25 -25h-450q-25 0 -25 25v77q0 25 25 25h147v729h-163q-23 0 -23 23v79q0 25 23 25h294q23 0 23 -25v-831h149q25 0 25 -25v-77zM719 1411l-2 -12l-35 -84 q-4 -12 -16 -12q-6 0 -19 6q-88 43 -160 43q-76 0 -104 -60q-18 -37 -18 -151v-158h297q23 0 22 -14q0 -4 -4 -13l-27 -82q-6 -18 -24 -18h-264v-729h145q25 0 25 -25v-77q0 -25 -25 -25h-414q-25 0 -24 25v77q0 25 24 25h115v729h-135q-25 0 -25 23v79q0 25 25 25h135v160 q0 166 53 237q78 102 230 103q72 0 148.5 -24.5t76.5 -47.5z" />
<glyph unicode="&#xfb02;" horiz-adv-x="1136" d="M1149 31q0 -16 -58.5 -33.5t-115.5 -17.5q-176 0 -209 143q-10 45 -10 252v966h-125q-25 0 -25 25v78q0 25 25 24h258q20 0 20 -22v-1075q0 -141 6 -187q10 -78 82 -78q43 0 92 25q12 4 17 4q10 0 14 -14l25 -76q4 -12 4 -14zM719 1411l-2 -12l-35 -84q-4 -12 -16 -12 q-6 0 -19 6q-88 43 -160 43q-76 0 -104 -60q-18 -37 -18 -151v-158h297q23 0 22 -14q0 -4 -4 -13l-27 -82q-6 -18 -24 -18h-264v-729h145q25 0 25 -25v-77q0 -25 -25 -25h-414q-25 0 -24 25v77q0 25 24 25h115v729h-135q-25 0 -25 23v79q0 25 25 25h135v160q0 166 53 237 q78 102 230 103q72 0 148.5 -24.5t76.5 -47.5z" />
<glyph unicode="&#xfb03;" horiz-adv-x="1781" d="M1632 1341q0 -51 -36 -86.5t-87 -35.5t-88 36.5t-37 87.5t37 87t90 36q49 0 85 -37t36 -88zM1769 25q0 -25 -25 -25h-450q-25 0 -25 25v77q0 25 25 25h147v729h-163q-23 0 -23 23v79q0 25 23 25h294q23 0 23 -25v-831h149q25 0 25 -25v-77zM1325 1411l-2 -12l-35 -84 q-4 -12 -16 -12q-6 0 -19 6q-88 43 -160 43q-76 0 -104 -60q-18 -37 -18 -151v-158h297q23 0 22 -14q0 -4 -4 -13l-27 -82q-6 -18 -24 -18h-264v-729h145q25 0 25 -25v-77q0 -25 -25 -25h-414q-25 0 -24 25v77q0 25 24 25h115v729h-135q-25 0 -25 23v79q0 25 25 25h135v160 q0 166 53 237q78 102 230 103q72 0 148.5 -24.5t76.5 -47.5zM719 1411l-2 -12l-35 -84q-4 -12 -16 -12q-6 0 -19 6q-88 43 -160 43q-76 0 -104 -60q-18 -37 -18 -151v-158h297q23 0 22 -14q0 -4 -4 -13l-27 -82q-6 -18 -24 -18h-264v-729h145q25 0 25 -25v-77q0 -25 -25 -25 h-414q-25 0 -24 25v77q0 25 24 25h115v729h-135q-25 0 -25 23v79q0 25 25 25h135v160q0 166 53 237q78 102 230 103q72 0 148.5 -24.5t76.5 -47.5z" />
<glyph unicode="&#xfb04;" horiz-adv-x="1742" d="M1755 31q0 -16 -58.5 -33.5t-115.5 -17.5q-176 0 -209 143q-10 45 -10 252v966h-125q-25 0 -25 25v78q0 25 25 24h258q20 0 20 -22v-1075q0 -141 6 -187q10 -78 82 -78q43 0 92 25q12 4 17 4q10 0 14 -14l25 -76q4 -12 4 -14zM1325 1411l-2 -12l-35 -84q-4 -12 -16 -12 q-6 0 -19 6q-88 43 -160 43q-76 0 -104 -60q-18 -37 -18 -151v-158h297q23 0 22 -14q0 -4 -4 -13l-27 -82q-6 -18 -24 -18h-264v-729h145q25 0 25 -25v-77q0 -25 -25 -25h-414q-25 0 -24 25v77q0 25 24 25h115v729h-135q-25 0 -25 23v79q0 25 25 25h135v160q0 166 53 237 q78 102 230 103q72 0 148.5 -24.5t76.5 -47.5zM719 1411l-2 -12l-35 -84q-4 -12 -16 -12q-6 0 -19 6q-88 43 -160 43q-76 0 -104 -60q-18 -37 -18 -151v-158h297q23 0 22 -14q0 -4 -4 -13l-27 -82q-6 -18 -24 -18h-264v-729h145q25 0 25 -25v-77q0 -25 -25 -25h-414 q-25 0 -24 25v77q0 25 24 25h115v729h-135q-25 0 -25 23v79q0 25 25 25h135v160q0 166 53 237q78 102 230 103q72 0 148.5 -24.5t76.5 -47.5z" />
</font>
</defs>
</svg>
